<svg width="64" height="64" viewBox="0 0 64 64" fill="none" xmlns="http://www.w3.org/2000/svg">
<g clip-path="url(#clip0)">
<path d="M32 64C49.6731 64 64 49.6731 64 32C64 14.3269 49.6731 0 32 0C14.3269 0 0 14.3269 0 32C0 49.6731 14.3269 64 32 64Z" fill="#5C2D91"/>
<path opacity="0.1" d="M9.82 9C6.56696 11.8988 3.9402 15.4314 2.10072 19.3813C0.261235 23.3312 -0.752211 27.6152 -0.877499 31.9706C-1.00279 36.326 -0.23728 40.6611 1.3721 44.7102C2.98148 48.7593 5.40083 52.4371 8.48185 55.5181C11.5629 58.5992 15.2407 61.0185 19.2898 62.6279C23.3389 64.2373 27.674 65.0028 32.0294 64.8775C36.3848 64.7522 40.6688 63.7388 44.6187 61.8993C48.5686 60.0598 52.1012 57.433 55 54.18L9.82 9Z" fill="white"/>
<path d="M7.4 37.25C7.21334 37.2529 7.02809 37.2171 6.85597 37.1448C6.68384 37.0726 6.52858 36.9653 6.4 36.83C6.26789 36.6995 6.16348 36.5436 6.09303 36.3718C6.02258 36.2 5.98754 36.0157 5.99 35.83C5.98867 35.6445 6.02423 35.4605 6.09461 35.2888C6.165 35.1172 6.2688 34.9612 6.4 34.83C6.52732 34.6924 6.68211 34.583 6.85437 34.5089C7.02663 34.4348 7.21251 34.3977 7.4 34.4C7.58722 34.3995 7.77255 34.4375 7.94454 34.5114C8.11653 34.5854 8.27154 34.6938 8.4 34.83C8.53346 34.96 8.63941 35.1156 8.71156 35.2873C8.78371 35.4591 8.82059 35.6437 8.82 35.83C8.82175 36.0165 8.7854 36.2014 8.71318 36.3733C8.64096 36.5453 8.53439 36.7007 8.4 36.83C8.27032 36.9639 8.11486 37.0702 7.94299 37.1424C7.77112 37.2145 7.58641 37.2512 7.4 37.25Z" fill="white"/>
<path d="M27.27 37H24.65L15.28 22.46C15.0466 22.1018 14.8522 21.7196 14.7 21.32H14.62C14.709 22.1502 14.7425 22.9854 14.72 23.82V37H12.59V18.77H15.36L24.48 33.05C24.86 33.6433 25.1067 34.05 25.22 34.27H25.27C25.1645 33.3808 25.121 32.4853 25.14 31.59V18.77H27.27V37Z" fill="white"/>
<path d="M41.69 37H32V18.77H41.24V20.7H34.18V26.76H40.76V28.68H34.18V35H41.7L41.69 37Z" fill="white"/>
<path d="M56 20.7H50.7V37H48.57V20.7H43.33V18.77H56V20.7Z" fill="white"/>
<path d="M26.12 49.4C25.398 49.7496 24.6017 49.9178 23.8 49.89C23.2673 49.914 22.7356 49.8238 22.2406 49.6255C21.7456 49.4271 21.2987 49.1252 20.93 48.74C20.1952 47.9175 19.8081 46.8421 19.85 45.74C19.8231 45.1433 19.9163 44.5472 20.1242 43.9872C20.3321 43.4272 20.6503 42.9147 21.06 42.48C21.4593 42.071 21.9393 41.7495 22.4696 41.536C22.9998 41.3225 23.5687 41.2217 24.14 41.24C24.8237 41.2166 25.5048 41.3358 26.14 41.59V42.59C25.5285 42.2514 24.8389 42.0791 24.14 42.09C23.6994 42.0776 23.2613 42.1605 22.8557 42.3331C22.4501 42.5057 22.0866 42.7639 21.79 43.09C21.1663 43.8005 20.8436 44.7258 20.89 45.67C20.8433 46.5645 21.1443 47.4423 21.73 48.12C22.0109 48.4221 22.3539 48.6598 22.7354 48.8169C23.1169 48.974 23.5278 49.0467 23.94 49.03C24.7078 49.0501 25.4661 48.8562 26.13 48.47L26.12 49.4Z" fill="#F2F2F2"/>
<path d="M30.21 49.89C29.8119 49.9029 29.4157 49.8301 29.0483 49.6765C28.6808 49.523 28.3506 49.2923 28.08 49C27.5332 48.3898 27.2493 47.5884 27.29 46.77C27.265 46.3413 27.3255 45.9118 27.468 45.5067C27.6105 45.1015 27.8321 44.7287 28.12 44.41C28.4138 44.1233 28.7633 43.8999 29.1468 43.7537C29.5304 43.6075 29.9399 43.5416 30.35 43.56C30.7376 43.5394 31.1251 43.6029 31.4859 43.7461C31.8467 43.8894 32.1721 44.1091 32.44 44.39C32.9715 45.0305 33.2396 45.8492 33.19 46.68C33.232 47.5232 32.9411 48.3492 32.38 48.98C32.1043 49.2779 31.768 49.5133 31.3937 49.6703C31.0194 49.8273 30.6157 49.9022 30.21 49.89V49.89ZM30.28 44.42C30.0049 44.4084 29.7308 44.4591 29.478 44.5681C29.2252 44.6772 29.0003 44.8419 28.82 45.05C28.4352 45.5455 28.2433 46.1637 28.28 46.79C28.2451 47.3976 28.4376 47.9965 28.82 48.47C29.0022 48.6751 29.2277 48.8372 29.4802 48.9444C29.7327 49.0516 30.0059 49.1014 30.28 49.09C30.5484 49.1058 30.8168 49.06 31.0646 48.956C31.3125 48.852 31.5333 48.6926 31.71 48.49C32.0736 47.9932 32.2506 47.3843 32.21 46.77C32.2495 46.1527 32.0727 45.541 31.71 45.04C31.5358 44.8332 31.3159 44.6696 31.0678 44.562C30.8197 44.4544 30.5501 44.4058 30.28 44.42V44.42Z" fill="#F2F2F2"/>
<path d="M37.86 44.72C37.644 44.5785 37.3876 44.5118 37.13 44.53C36.9286 44.5373 36.732 44.5941 36.5576 44.6952C36.3832 44.7963 36.2364 44.9388 36.13 45.11C35.8324 45.5812 35.6891 46.1335 35.72 46.69V49.75H34.72V43.75H35.72V45C35.8299 44.6132 36.0486 44.2661 36.35 44C36.6108 43.7737 36.9447 43.6494 37.29 43.65C37.4833 43.6413 37.6766 43.6684 37.86 43.73V44.72Z" fill="#F2F2F2"/>
<path d="M43.72 47H39.49C39.4616 47.559 39.6436 48.1084 40 48.54C40.1854 48.7249 40.4077 48.8685 40.6524 48.9616C40.8971 49.0546 41.1586 49.095 41.42 49.08C42.0979 49.0732 42.7535 48.8371 43.28 48.41V49.31C42.6617 49.7175 41.9296 49.9172 41.19 49.88C40.8168 49.8988 40.4441 49.8351 40.0984 49.6934C39.7527 49.5516 39.4425 49.3354 39.19 49.06C38.6694 48.4106 38.4092 47.5907 38.46 46.76C38.4241 45.9272 38.7065 45.112 39.25 44.48C39.4973 44.1943 39.8051 43.9671 40.151 43.8149C40.4969 43.6627 40.8723 43.5893 41.25 43.6C41.5911 43.5809 41.932 43.6394 42.2473 43.771C42.5625 43.9026 42.8438 44.104 43.07 44.36C43.5304 44.9672 43.7576 45.7195 43.71 46.48L43.72 47ZM42.72 46.19C42.7403 45.7266 42.5989 45.2706 42.32 44.9C42.1832 44.7454 42.0131 44.6237 41.8227 44.5441C41.6322 44.4644 41.4262 44.4288 41.22 44.44C41.0048 44.4374 40.7914 44.4796 40.5934 44.5639C40.3954 44.6483 40.2172 44.773 40.07 44.93C39.7409 45.2782 39.5338 45.7239 39.48 46.2L42.72 46.19Z" fill="#F2F2F2"/>
</g>
<defs>
<clipPath id="clip0">
<rect width="64" height="64" fill="white"/>
</clipPath>
</defs>
</svg>
