<svg width="415" height="415" viewBox="0 0 415 415" fill="none" xmlns="http://www.w3.org/2000/svg">
  <path d="M74.0702 207.484C74.0253 188.223 78.1792 169.183 86.2426 151.691C94.3044 134.2 106.083 118.674 120.756 106.198L111.345 94.8829C85.8491 116.499 68.4501 146.137 62.0067 178.936C55.5629 211.736 60.4537 245.752 75.8768 275.409L88.0085 266.768C78.8121 248.361 74.0401 228.064 74.069 207.485L74.0702 207.484Z" fill="#4A92FF" />
  <path d="M340.846 207.484C340.864 241.611 327.794 274.449 304.328 299.226C280.862 324.006 248.787 338.842 214.71 340.684C180.63 342.522 147.145 331.222 121.149 309.112C119.59 307.859 118.603 306.03 118.412 304.038C118.223 302.047 118.846 300.062 120.14 298.538C121.436 297.013 123.293 296.076 125.289 295.94C127.285 295.805 129.25 296.483 130.739 297.819C139.806 305.472 149.973 311.718 160.899 316.345L165.612 302.168C163.589 301.279 161.522 300.493 159.565 299.47V299.472C157.219 298.246 155.703 295.86 155.592 293.215C155.48 290.569 156.787 288.065 159.022 286.645C161.258 285.225 164.08 285.107 166.428 286.333C179.08 292.985 193.165 296.445 207.46 296.41C213.241 296.397 219.005 295.821 224.675 294.691L220.57 280.359H220.569C216.244 281.157 211.857 281.569 207.46 281.589C204.813 281.589 202.367 280.177 201.042 277.884C199.718 275.592 199.718 272.766 201.042 270.474C202.367 268.181 204.813 266.768 207.46 266.768C228.012 266.748 247.087 256.073 257.851 238.564L243.712 232.939C236.983 242.664 226.631 249.279 214.98 251.299C203.329 253.32 191.355 250.577 181.746 243.685L171.215 254.216C174.301 256.666 177.623 258.802 181.131 260.596C183.139 261.597 184.586 263.454 185.065 265.647C185.544 267.84 185.003 270.131 183.595 271.878C182.186 273.626 180.063 274.641 177.818 274.638C176.673 274.638 175.543 274.368 174.521 273.853C157.716 265.495 144.729 251.043 138.21 233.444L124.078 238.142C128.719 250.808 136.189 262.248 145.916 271.593C147.416 272.934 148.308 274.825 148.385 276.836C148.463 278.846 147.72 280.801 146.327 282.253C144.934 283.703 143.011 284.527 140.999 284.531C138.987 284.537 137.061 283.723 135.66 282.279C117.653 265.04 106.465 241.885 104.151 217.063C101.836 192.243 108.551 167.421 123.06 147.146C137.572 126.874 158.904 112.515 183.144 106.703L180.729 92.0602C178.002 92.6898 175.268 93.2976 172.577 94.1198C170.046 94.9013 167.291 94.2732 165.349 92.4712C163.407 90.6693 162.574 87.9686 163.164 85.3865C163.753 82.8043 165.675 80.732 168.205 79.9516C196.379 71.4904 226.543 72.453 254.121 82.6929L260.791 69.3541C238.254 60.5442 213.89 57.4351 189.865 60.3052C165.841 63.1753 142.894 71.9348 123.067 85.806L132.613 97.2096C134.014 96.2544 135.399 95.2759 136.852 94.3641C139.101 92.9587 141.931 92.8603 144.274 94.1065C146.617 95.3527 148.117 97.7538 148.209 100.405C148.3 103.057 146.972 105.556 144.721 106.962C126.253 118.468 111.31 134.839 101.537 154.281C91.7613 173.722 87.5306 195.48 89.3095 217.166C91.0883 238.853 98.8071 259.632 111.619 277.217C113.181 279.355 113.485 282.164 112.414 284.585C111.343 287.007 109.062 288.674 106.43 288.958C103.798 289.242 101.213 288.1 99.651 285.962C98.1689 283.91 96.7983 281.789 95.4278 279.67L83.3713 288.259C104.035 320.13 136.156 342.837 173.097 351.689C210.034 360.541 248.962 354.857 281.827 335.814C314.692 316.771 338.98 285.827 349.67 249.375C360.36 212.928 356.631 173.766 339.257 139.989L326.489 147.673C335.891 166.212 340.81 186.697 340.851 207.483L340.846 207.484Z" fill="#4A92FF" />
  <path d="M414.136 225.269C415.204 213.481 415.204 201.621 414.136 189.832V189.699C413.875 187.828 412.617 186.247 410.853 185.571L385.85 175.619C383.555 174.702 381.867 172.701 381.352 170.285C376.848 149.142 368.498 129.008 356.719 110.882C355.376 108.811 355.15 106.209 356.119 103.938L366.7 79.1349L366.702 79.1363C367.533 77.4458 367.32 75.4281 366.153 73.949C358.526 64.8942 350.134 56.5155 341.069 48.9009C339.59 47.691 337.547 47.4435 335.823 48.2641L311.005 58.8166C308.734 59.7848 306.132 59.5591 304.061 58.2159C285.936 46.4374 265.801 38.0876 244.659 33.5836C242.24 33.0683 240.24 31.3807 239.322 29.0851L229.318 4.05293C228.64 2.31466 227.081 1.07571 225.235 0.806526C213.445 -0.268842 201.581 -0.268842 189.791 0.806526C187.892 1.04244 186.277 2.30455 185.589 4.08913L175.585 29.085C174.668 31.3804 172.667 33.0681 170.25 33.5835C149.108 38.0875 128.974 46.4373 110.848 58.2158C108.777 59.5589 106.175 59.7847 103.904 58.8165L79.0933 48.2336C77.4042 47.3999 75.3851 47.6141 73.906 48.7822C64.8571 56.4112 56.4799 64.8043 48.8668 73.8662C47.6539 75.3439 47.405 77.389 48.2299 79.1128L58.8187 103.93C59.787 106.201 59.5627 108.803 58.2181 110.875C46.4395 129 38.0913 149.135 33.5869 170.277C33.0702 172.695 31.384 174.696 29.0883 175.613L4.05621 185.617H4.05477C2.31216 186.299 1.07176 187.868 0.809805 189.722C-0.269935 201.512 -0.269935 213.376 0.809805 225.166C1.04572 227.065 2.30638 228.68 4.09241 229.368L29.0504 239.35C31.3459 240.268 33.0336 242.268 33.549 244.685C38.053 265.828 46.4028 285.961 58.1813 304.087C59.5244 306.158 59.7502 308.76 58.7819 311.031L48.1991 335.842C47.3625 337.529 47.5724 339.549 48.7404 341.029C56.368 350.103 64.7625 358.502 73.8318 366.135C75.311 367.345 77.3546 367.593 79.0784 366.772L103.896 356.183C106.165 355.206 108.772 355.432 110.84 356.784C128.966 368.562 149.1 376.912 170.242 381.416C172.661 381.931 174.661 383.618 175.579 385.913L185.583 410.945V410.947C186.265 412.695 187.836 413.938 189.695 414.199C201.483 415.267 213.345 415.267 225.132 414.199C227.032 413.963 228.649 412.698 229.334 410.909L239.316 385.884C240.234 383.589 242.234 381.901 244.651 381.386C265.794 376.882 285.927 368.532 304.053 356.753C306.124 355.41 308.726 355.185 310.997 356.153L335.8 366.735L335.799 366.736C337.487 367.583 339.512 367.371 340.986 366.195C350.042 358.567 358.423 350.173 366.034 341.103C367.257 339.631 367.509 337.58 366.679 335.857L356.09 311.039C355.121 308.768 355.346 306.166 356.69 304.095C368.469 285.97 376.819 265.835 381.323 244.693C381.838 242.274 383.524 240.274 385.82 239.356L410.852 229.352H410.853C412.605 228.685 413.859 227.123 414.136 225.269L414.136 225.269ZM207.451 370.514C164.211 370.514 122.746 353.339 92.1702 322.765C61.5961 292.19 44.4209 250.724 44.4209 207.484C44.4209 164.244 61.5965 122.779 92.1702 92.2037C122.746 61.6297 164.211 44.4545 207.451 44.4545C250.691 44.4545 292.156 61.63 322.732 92.2037C353.306 122.779 370.481 164.244 370.481 207.484C370.432 250.71 353.24 292.145 322.676 322.709C292.112 353.274 250.676 370.466 207.451 370.514V370.514Z" fill="#4A92FF" />
  <path d="M274.345 75.4005L267.742 88.6352C268.564 89.0578 269.431 89.3762 270.248 89.8134V89.8148C272.582 91.0668 274.071 93.4694 274.156 96.1181C274.238 98.7668 272.902 101.258 270.65 102.655C268.398 104.05 265.573 104.138 263.237 102.886C242.403 91.8716 218.785 87.2474 195.335 89.5921L197.75 104.228C200.952 103.931 204.182 103.739 207.458 103.739C233.866 103.727 259.283 113.79 278.524 131.876C297.767 149.962 309.384 174.709 311.008 201.064C312.631 227.423 304.138 253.408 287.259 273.72C285.565 275.755 282.912 276.732 280.303 276.283C277.692 275.833 275.519 274.025 274.604 271.54C273.688 269.055 274.167 266.27 275.862 264.234C288.074 249.531 295.223 231.288 296.252 212.205C297.281 193.12 292.135 174.212 281.576 158.283C271.016 142.353 255.606 130.249 237.629 123.765C219.651 117.279 200.061 116.76 181.765 122.281C163.469 127.803 147.438 139.072 136.046 154.418C124.657 169.765 118.515 188.373 118.529 207.485C118.548 212.973 119.069 218.447 120.085 223.84L134.321 219.104C133.697 215.261 133.373 211.377 133.35 207.485C133.35 204.732 133.503 201.981 133.809 199.245C134.106 196.612 135.784 194.34 138.212 193.281C140.639 192.221 143.447 192.538 145.577 194.11C147.708 195.683 148.838 198.272 148.542 200.904C146.812 216.239 151.167 231.64 160.672 243.795L171.253 233.214H171.255C164.897 224.313 162.048 213.379 163.255 202.508C164.464 191.637 169.642 181.595 177.8 174.308C185.957 167.021 196.517 163.001 207.455 163.022C221.439 163.065 234.598 169.646 243.025 180.807C244.614 182.924 244.951 185.729 243.911 188.163C242.871 190.598 240.611 192.293 237.982 192.61C235.354 192.926 232.757 191.816 231.168 189.699C225.003 181.481 215.024 177.039 204.793 177.962C194.561 178.884 185.535 185.04 180.942 194.228C176.348 203.417 176.839 214.328 182.24 223.067C187.64 231.807 197.181 237.125 207.454 237.125C214.282 237.107 220.896 234.739 226.185 230.421C231.475 226.104 235.118 220.097 236.503 213.412C237.086 210.873 238.959 208.827 241.437 208.021C243.913 207.216 246.633 207.772 248.595 209.482C250.559 211.195 251.48 213.812 251.02 216.376C250.797 217.466 250.383 218.473 250.079 219.533L264.062 225.098H264.063C269.731 206.808 266.215 186.904 254.623 171.665C243.033 156.423 224.792 147.718 205.651 148.295C186.511 148.871 168.828 158.656 158.173 174.568C156.695 176.767 154.158 178.01 151.515 177.831C148.872 177.651 146.526 176.075 145.361 173.696C144.194 171.316 144.387 168.497 145.864 166.298C154.489 153.35 166.97 143.444 181.539 137.986C196.108 132.527 212.024 131.792 227.035 135.885C242.044 139.978 255.386 148.691 265.166 160.79C274.945 172.888 280.671 187.758 281.529 203.292C282.388 218.827 278.335 234.237 269.945 247.34C261.556 260.443 249.256 270.571 234.788 276.293L238.893 290.625C244.435 288.536 249.751 285.893 254.759 282.732C256.999 281.32 259.823 281.208 262.166 282.44C264.511 283.673 266.019 286.063 266.123 288.71C266.229 291.357 264.913 293.858 262.673 295.272C250.452 303.042 236.719 308.127 222.382 310.192C208.048 312.257 193.438 311.253 179.52 307.246L174.822 321.4V321.401C200.866 328.888 228.692 327.22 253.654 316.676C278.616 306.132 299.214 287.347 312.004 263.457C324.796 239.566 329.009 212.01 323.945 185.388C318.879 158.766 304.84 134.686 284.17 117.16C282.611 115.908 281.624 114.078 281.433 112.088C281.243 110.096 281.867 108.112 283.161 106.586C284.456 105.062 286.313 104.126 288.309 103.99C290.305 103.853 292.27 104.531 293.76 105.867C303.553 114.263 312.082 124.03 319.081 134.865L331.836 127.195H331.834C317.562 105.171 297.727 87.3047 274.336 75.4035L274.345 75.4005Z" fill="#4A92FF" />
</svg>
