<svg width="100" height="100" viewBox="0 0 100 100" fill="none" xmlns="http://www.w3.org/2000/svg">
<circle cx="50" cy="50" r="50" fill="#2A2A2A"/>
<path d="M33.217 74.9889C30.5122 72.8392 27.627 70.7782 25.6554 67.876C21.5068 62.7581 18.3127 56.8327 16.129 50.6058C14.8091 46.5568 14.3571 42.2158 12.6556 38.3232C10.8756 35.496 12.9606 32.4054 16.0253 31.5068C17.3898 31.2421 19.789 29.9417 16.8929 30.8712C14.2965 32.7961 14.0452 29.1239 16.7077 28.8914C18.5247 28.6473 19.1935 27.1443 18.5722 25.7913C16.6217 24.5061 23.3017 23.0936 19.9406 21.1758C16.4393 17.3587 24.8383 16.6239 22.7661 20.959C22.2701 24.2925 28.635 20.348 27.1582 24.1975C28.6592 26.0461 32.7791 24.6182 32.6769 27.2117C34.8634 27.3636 35.6139 29.2226 37.6665 29.3653C39.7938 30.3361 43.6503 31.101 44.3742 33.5234C42.2637 35.2118 37.3764 30.0358 37.1416 34.7095C37.7792 41.6136 37.6167 48.7258 40.1166 55.3006C41.299 59.2817 44.1655 62.4155 46.7542 65.5162C49.2311 68.5529 52.5862 70.6906 56.0059 72.4906C59.0056 73.9202 62.2397 74.8683 65.5089 75.4632C66.8349 74.4383 69.1759 70.6282 71.2445 72.2349C71.3426 74.0401 67.1388 76.0086 71.0467 75.8091C73.3414 75.1096 74.933 77.6023 76.8226 75.3539C78.5635 77.4376 84.0586 74.0225 82.8199 78.2817C81.1449 79.3737 78.702 78.7138 77.0243 80.216C74.2581 78.8199 72.0558 81.4652 68.9935 81.1306C65.5926 81.7461 62.1328 81.9946 58.6849 82C53.0284 81.5484 47.252 81.358 41.8709 79.368C38.8395 78.4779 35.8812 76.7338 33.217 74.9889V74.9889ZM37.9942 77.0804C40.9542 78.3739 43.8486 79.7371 47.0926 80.1483C52.2393 80.8717 57.5542 81.9842 62.7193 80.9694C60.3817 79.9027 57.9649 81.3849 55.636 80.2067C52.8428 80.814 49.8454 80.0519 47.0058 79.6768C43.7767 78.2234 40.292 77.224 37.2681 75.3374C33.4896 73.9429 39.2223 77.1258 40.2427 77.3836C42.6047 78.7384 37.6452 76.6892 36.946 76.126C34.9677 75.0046 34.7155 75.2389 36.7501 76.3778C37.1599 76.6201 37.5648 76.874 37.9942 77.0804V77.0804ZM32.3617 73.0583C35.2301 74.1319 32.3491 71.0201 31.0346 71.2009C30.4523 70.18 28.8097 69.5351 29.9684 68.9867C27.8842 69.7178 27.7851 66.2064 26.8054 66.7081C24.6005 66.0045 25.9472 63.5123 23.3208 61.9819C23.081 60.3692 20.7113 58.9705 19.9554 56.538C19.6216 55.2926 17.2781 51.7162 18.7177 55.0446C19.9435 58.2487 22.1001 60.9927 23.8948 63.7335C25.2884 66.3431 26.9339 69.0705 29.4719 70.6984C30.3275 71.5277 31.1535 72.7983 32.3617 73.0583ZM24.0985 63.891C24.1986 63.4533 24.6231 64.8384 24.0985 63.891V63.891ZM35.7968 74.3452C36.432 74.0578 34.8835 73.9831 35.7968 74.3452V74.3452ZM37.3539 74.9192C37.1927 74.1267 36.6431 75.3623 37.3539 74.9192V74.9192ZM39.303 75.7407C40.2309 74.8479 37.873 75.1778 39.303 75.7407V75.7407ZM42.6434 77.622C43.2073 76.7798 40.8388 77.3042 42.6434 77.622V77.622ZM36.2288 73.1036C37.67 72.1615 34.3673 73.0905 36.2288 73.1036V73.1036ZM37.6909 73.8402C37.65 73.3422 37.1698 74.0633 37.6909 73.8402V73.8402ZM44.9985 78.449C46.1732 79.1981 51.8584 80.0909 48.2984 78.7562C47.7028 78.8831 41.6974 77.0398 44.9985 78.449ZM33.3975 69.3193C33.2833 68.8198 31.5741 68.7678 33.3975 69.3193V69.3193ZM36.7994 71.3227C37.6848 70.6988 34.9618 70.8414 36.7994 71.3227V71.3227ZM39.6609 73.0956C40.9314 72.6116 37.5999 72.6093 39.6609 73.0956V73.0956ZM32.0132 67.7959C33.3917 68.8641 37.5725 67.9328 34.1242 67.1582C32.5548 66.3129 29.0177 65.7342 31.4287 67.668L32.0132 67.7959L32.0132 67.7959ZM41.599 73.7077C42.1732 72.7192 39.1911 73.1432 41.599 73.7077V73.7077ZM38.6862 71.3685C42.0569 72.332 35.8517 69.2146 37.8545 71.014L38.2984 71.217L38.6862 71.3685L38.6862 71.3685ZM44.5262 74.7792C47.7184 74.81 41.6429 74.3345 44.5262 74.7792V74.7792ZM30.7849 65.9296C30.6602 65.3288 29.9972 65.98 30.7849 65.9296V65.9296ZM49.9261 77.8399C50.0113 76.7548 48.8844 78.6474 49.9261 77.8399V77.8399ZM36.2326 69.3006C36.0395 68.7292 35.2352 69.2773 36.2326 69.3006V69.3006ZM31.0877 65.5527C32.9203 65.4415 28.5786 64.7367 31.0877 65.5527V65.5527ZM24.9928 61.5718C24.7647 60.684 22.9986 59.976 24.9928 61.5718V61.5718ZM40.9933 71.8324C40.6576 71.4456 40.8354 71.917 40.9933 71.8324V71.8324ZM50.9525 78.0079C50.9206 77.4168 50.4101 78.2317 50.9525 78.0079V78.0079ZM40.1119 70.9127C40.2911 70.1511 38.5492 70.6821 40.1119 70.9127V70.9127ZM32.6924 66.1614C34.0558 66.0138 30.5083 65.23 32.6924 66.1614V66.1614ZM45.2431 74.0417C47.3678 73.1911 43.1723 73.6265 45.2431 74.0417V74.0417ZM38.7148 69.5637C41.1635 69.8828 35.8012 67.8808 38.1775 69.3846L38.7148 69.5638L38.7148 69.5637V69.5637ZM47.2251 74.8513C49.5112 73.4702 48.7575 78.0852 51.1036 75.2411C53.4179 73.5337 49.1051 77.352 51.9573 75.5456C54.02 74.1515 57.0667 76.2064 58.9914 76.8768C60.3755 76.8081 61.7211 78.0862 63.14 77.3087C65.8715 76.5653 57.7987 76.2061 59.9148 74.8871C57.4155 75.6221 55.5689 74.0108 54.3391 72.3932C51.5355 71.739 48.294 70.2907 46.8949 67.7837C46.3244 66.8425 47.719 67.9163 46.4024 66.3777C44.7131 64.8594 43.8695 63.1359 42.7355 61.2904C41.3807 60.5601 41.2229 58.4105 41.0859 61.2183C41.0967 59.4462 39.4502 58.2535 39.0484 58.7493C39.0412 57.0427 40.8104 57.8982 39.5719 56.6355C39.3053 54.8667 38.4276 53.0235 38.1638 51.0265C37.7539 50.0638 38.106 48.002 36.7648 50.1813C36.2761 52.4844 36.6026 47.351 37.3625 49.0438C38.3599 47.3164 37.0044 47.5196 36.9489 47.7594C37.5986 46.302 37.3601 44.2347 36.7794 45.0234C37.1256 43.4787 37.3263 39.3384 36.2612 40.0721C36.9068 38.4568 37.4856 32.6809 34.6828 34.8831C33.5469 34.8992 31.5798 35.2997 30.6499 35.767C33.5654 37.3909 30.3567 36.3534 29.1699 36.0953C29.0153 37.5979 27.8398 36.9481 26.3712 36.9628C28.7168 37.256 25.229 39.3869 23.8834 38.5592C22.1358 39.4031 25.3916 41.5098 23.9185 42.1612C24.0995 43.1432 21.2412 41.8065 21.4657 44.0744C19.7691 43.3532 21.2321 46.7645 22.0809 45.6108C24.9664 46.3999 24.1122 48.199 24.1857 49.908C23.7155 50.9038 21.8645 47.5673 23.7734 47.7218C22.2674 45.2498 22.1075 46.8283 20.8561 47.9767C20.5649 48.0601 24.0482 49.6107 21.8623 50.3774C23.7854 50.6772 23.8402 52.3778 24.2317 53.4539C25.3876 54.6704 25.151 52.1106 26.5341 53.5726C25.6589 52.2701 21.8981 49.9027 24.926 50.662C24.9098 49.3511 24.3784 48.294 25.3061 48.3196C26.2247 46.6385 24.344 52.4645 26.4147 50.328C26.9879 50.0751 27.1298 48.6447 28.1601 50.463C29.6566 51.9506 28.7007 53.0285 26.5897 51.6664C26.9674 52.961 29.4137 53.4237 28.9539 55.4482C29.4413 57.2288 30.1231 56.573 30.7174 56.47C31.1836 58.2001 31.4484 56.9279 31.4705 56.1046C33.6052 56.5664 33.1052 57.8414 33.7731 58.7323C35.2441 59.4032 31.6676 54.1847 34.193 57.1631C36.85 59.587 35.1895 60.5989 32.8051 60.2106C34.3142 60.0874 34.8009 62.2721 36.6885 62.1954C38.4099 63.0228 39.5753 66.201 36.6083 64.878C35.5792 63.9404 31.9374 62.7837 34.9119 64.5671C37.6591 65.8526 39.841 66.6217 42.4906 68.2353C44.3869 69.6031 45.2061 71.1698 45.9248 71.48C44.3311 72.2491 41.122 70.8658 43.505 70.4418C42.0187 70.1682 40.3469 69.4087 41.7706 71.28C42.9811 72.3013 46.0594 72.1931 46.6112 72.3088C46.1435 73.3502 45.3407 73.433 46.6304 73.5138C45.1916 74.2886 47.0917 74.4086 47.2251 74.8513H47.2251ZM44.2829 66.4557C43.4075 65.5307 43.1812 63.7981 44.1274 65.3057C44.6127 65.5026 45.6819 68.1371 44.2829 66.4557H44.2829ZM53.8645 72.6058C54.4105 72.5701 53.8803 73.025 53.8645 72.6058V72.6058ZM42.9007 64.1876C42.8671 62.7891 43.2173 65.2663 42.9007 64.1876V64.1876ZM41.9484 62.8929C40.8474 60.7432 43.3365 63.5017 41.9484 62.8929V62.8929ZM30.4082 54.8445C31.055 54.6702 30.7264 55.9624 30.4082 54.8445V54.8445ZM39.5927 59.8749C39.99 58.3675 40.0596 61.1398 39.5927 59.8749V59.8749ZM33.1041 55.3159C32.6467 54.4841 34.0609 56.0961 33.1041 55.3159V55.3159ZM38.6727 57.1197C37.6296 54.7582 39.4112 55.8298 38.9035 57.5067L38.6727 57.1197ZM29.0696 50.6484C28.6033 49.8737 27.8318 47.6004 28.0802 46.9065C28.3049 48.0367 30.4587 51.7703 29.1367 48.4531C27.6758 45.6724 30.883 49.3557 31.213 50.0492C31.3666 50.7392 30.3116 49.8607 31.0264 51.4785C29.7228 49.6366 30.2569 52.4959 29.0696 50.6484V50.6484ZM26.1017 48.5819C26.2239 46.7806 26.7812 49.8172 26.1017 48.5819V48.5819ZM27.4367 49.0463C28.0738 47.6866 28.5169 50.9418 27.4367 49.0463V49.0463ZM24.2254 46.5361C23.1204 45.4266 22.3208 44.4039 24.2771 45.8475C25.0309 45.8772 22.6024 43.5217 24.4586 45.0995C26.4105 45.4591 25.4225 48.3334 24.2254 46.5361ZM25.9123 46.4915C26.5539 45.849 26.2529 47.124 25.9123 46.4915V46.4915ZM26.9502 46.8278C25.9774 44.9852 28.1309 47.6002 26.9502 46.8278V46.8278ZM24.8868 44.8352C21.6746 41.9467 28.9231 46.3457 25.4116 45.3708L24.8868 44.8353L24.8868 44.8352V44.8352ZM34.0902 50.2386C32.7002 49.3964 33.7219 44.3097 34.1959 47.7886C35.5472 47.3469 34.1213 49.5853 35.1292 49.5646C34.9704 50.9769 34.5194 51.4846 34.0902 50.2386ZM37.4944 52.2715C37.6307 50.7386 37.7813 53.3196 37.4944 52.2715V52.2715ZM36.9031 51.6812C37.0561 51.0263 36.9189 52.4524 36.9031 51.6812V51.6812ZM25.5169 43.8861C23.4533 41.0091 31.5144 46.7962 26.8387 44.6158C26.3501 44.4866 25.7622 44.4405 25.5169 43.8861ZM32.0722 47.398C31.8769 44.9755 32.5083 47.7995 32.0721 47.398L32.0722 47.398ZM37.0491 50.624C37.4342 49.2442 37.0778 51.5369 37.0491 50.624V50.624ZM25.8331 42.7881C27.0596 42.523 30.9158 44.9646 27.3745 43.4855C26.9811 43.0454 26.1422 43.2453 25.8331 42.7881ZM36.3653 48.0923C36.4964 45.6153 37.0975 46.6127 36.3698 48.4469L36.3653 48.0923L36.3653 48.0923H36.3653ZM26.746 41.9261C27.2458 41.1854 25.4195 38.5773 27.0093 40.9906C27.6963 41.5421 28.9983 41.9146 27.8487 42.1466C29.6567 43.7582 27.4078 42.5833 26.746 41.9261V41.9261ZM35.8444 47.3186C36.1896 44.4969 36.1488 48.9717 35.8444 47.3186V47.3186ZM25.7024 39.3199C26.0841 39.1551 25.9039 39.8339 25.7024 39.3199V39.3199ZM28.0756 40.7473C28.6863 39.4523 29.2023 42.1916 28.0756 40.7473V40.7473ZM34.7699 44.5102C34.7634 44.0128 34.8962 45.2336 34.7699 44.5102V44.5102ZM34.3821 43.6427C33.4529 41.3264 35.2463 44.869 34.3821 43.6427V43.6427ZM33.8116 42.1241C33.6556 41.167 34.3416 43.3265 33.8116 42.1241L33.8116 42.1241ZM34.74 40.599C34.1025 39.4637 35.5452 35.5958 35.7062 37.9946C35.0332 39.8637 35.5121 40.9094 35.9815 38.4024C36.8485 36.4293 35.7942 42.2958 34.74 40.599L34.74 40.599V40.599ZM35.6942 34.8469C35.9721 34.502 35.7559 35.2624 35.6942 34.8469V34.8469ZM34.1008 66.573C33.7228 66.2397 34.1482 66.785 34.1008 66.573V66.573ZM37.3833 68.2508C39.2092 68.7242 39.1998 67.9637 37.5496 67.7378C36.662 66.9035 33.8612 66.0185 36.3681 67.6343C36.5341 68.0592 37.0587 68.0493 37.3833 68.2508V68.2508ZM30.9005 63.8999C31.9064 64.6579 34.6894 66.0481 32.3335 64.1884C33.1278 63.2559 30.8131 62.7595 31.581 62.1358C29.628 60.9282 30.0403 61.0356 31.4086 61.0736C29.0614 60.0135 31.7474 60.0928 31.6209 59.5496C30.7159 59.369 27.1256 57.9371 29.2377 59.6672C27.0906 58.561 28.7261 60.0793 28.0771 59.9188C25.8815 59.3139 30.0324 61.6085 27.7284 61.0389C28.988 62.0475 31.1188 63.6225 28.2609 62.1063C27.8844 62.654 30.3061 63.4842 30.9005 63.8999ZM34.3336 65.8928C38.5079 67.252 32.287 64.2323 34.3336 65.8928V65.8928ZM51.9077 76.6507C51.9616 75.8139 51.3372 77.3645 51.9077 76.6507V76.6507ZM53.7141 77.4188C54.6771 76.4759 53.7534 78.9209 55.3099 77.188C55.3267 75.9475 55.2619 75.2147 53.5213 76.7217C53.0414 76.9906 52.8272 78.1339 53.7141 77.4188V77.4188ZM25.0411 59.2233C24.7453 58.0484 22.9679 58.0545 25.0411 59.2233V59.2233ZM26.9699 60.5004C26.2536 59.3004 24.4143 59.414 26.9699 60.5004V60.5004ZM37.9428 67.1872C39.0142 68.1487 42.8632 67.8927 39.244 67.3055C38.708 66.5047 35.8403 66.6974 37.9428 67.1872ZM53.027 76.6004C54.6759 75.2024 51.4295 77.2241 53.027 76.6004V76.6004ZM56.4562 78.9816C56.4665 78.533 55.7455 79.1781 56.4562 78.9816V78.9816ZM56.4615 78.3535C58.2874 76.3987 54.6923 78.4692 56.4615 78.3535H56.4615ZM20.2971 55.2102C18.7409 52.9665 19.3297 51.958 17.829 50.126C17.5449 48.7251 15.2544 45.546 16.6443 48.914C17.9174 50.8837 18.2957 53.9334 20.2971 55.2102V55.2102ZM55.8888 77.7321C59.248 75.5382 54.5099 76.7764 55.8888 77.7321V77.7321ZM58.4531 78.7472C60.1353 77.2877 57.389 78.4419 58.4531 78.7472V78.7472ZM24.4694 56.7433C24.9508 56.0195 23.226 56.6507 24.4694 56.7433V56.7433ZM57.9177 78.0541C59.5465 76.9929 57.5424 77.1559 57.6225 78.1517L57.9177 78.0541H57.9177ZM35.8131 63.9758C35.7571 63.2592 34.953 64.0366 35.8131 63.9758V63.9758ZM37.1792 64.77C36.745 63.8831 36.5117 64.9093 37.1792 64.77V64.77ZM60.5312 78.7712C62.6179 77.2502 59.2663 78.48 60.0932 79.0594L60.5312 78.7712ZM59.7322 78.381C61.432 76.9417 57.9375 79.0188 59.7322 78.381V78.381ZM63.8147 81.1282C64.956 80.3557 62.4281 80.8783 63.8147 81.1282V81.1282ZM25.5161 56.2214C27.0459 56.5677 31.6298 60.0284 28.9255 56.4607C27.5405 56.0464 28.3711 52.6255 26.9584 53.2309C27.9066 54.8316 27.7385 55.5129 25.7477 54.5037C23.2455 53.2695 24.3416 55.1154 24.8306 55.6241C24.1642 55.7771 25.712 56.2085 25.5161 56.2214V56.2214ZM18.5461 50.6593C18.82 49.5146 16.0242 44.3621 17.2259 48.0775C17.6597 48.8558 17.6156 50.3308 18.5461 50.6593ZM31.339 58.6289C30.5513 57.9632 31.3016 58.5347 31.339 58.6289V58.6289ZM33.2789 59.0851C33.2779 57.8726 31.1346 58.5927 33.2789 59.0851V59.0851ZM50.0899 69.7937C49.7693 68.9653 48.8225 69.7745 50.0899 69.7938L50.0899 69.7937ZM50.8972 70.3896C50.778 69.9259 50.4314 70.4791 50.8972 70.3896V70.3896ZM57.5605 74.6306C58.2013 74.1522 56.7607 74.5695 57.5605 74.6306V74.6306ZM22.0277 51.5574C23.8607 50.8403 20.0637 51.046 22.0277 51.5574V51.5574ZM48.61 68.4796C48.5896 67.2806 47.4414 68.7771 48.61 68.4796V68.4796ZM21.3034 49.8521C22.4809 49.4502 20.2142 49.5874 21.3034 49.8521V49.8521ZM24.721 51.5249C24.6997 51.1308 24.3595 51.6741 24.721 51.5249V51.5249ZM66.4059 77.354C67.92 77.0439 71.3703 78.1328 71.9279 76.9484C70.0893 76.9033 65.5665 75.6376 65.3525 77.2504L65.755 77.3145L66.4059 77.354V77.354ZM25.8072 51.8015C25.8336 50.5864 24.8695 51.7561 25.8072 51.8015V51.8015ZM16.8215 45.503C16.4134 43.188 15.2694 45.1526 16.8215 45.503V45.503ZM18.9642 46.0473C18.9906 45.3039 17.0029 45.3784 18.9642 46.0473V46.0473ZM20.1888 46.655C19.8348 46.3652 19.9117 47.021 20.1888 46.655V46.655ZM27.8938 51.6494C28.2565 51.3127 27.035 51.4 27.8938 51.6494V51.6494ZM19.3732 45.2844C19.1661 43.5359 16.8914 45.0224 19.3732 45.2844V45.2844ZM14.9801 42.4041C14.9176 41.5971 14.552 42.7085 14.9801 42.4041V42.4041ZM15.6336 41.9055C15.527 40.9486 15.0725 42.0272 15.6336 41.9055V41.9055ZM19.2441 44.0831C20.7708 43.4772 16.4632 42.8297 18.9321 43.9686L19.2441 44.0831ZM67.5647 74.2423C68.5419 73.337 66.3228 73.9624 67.5647 74.2423V74.2423ZM73.4022 77.2999C73.7938 76.1294 72.4162 77.454 73.4022 77.2999V77.2999ZM19.613 42.171C19.7739 41.0388 18.4027 42.3958 19.613 42.171V42.171ZM14.4762 38.6933C14.2003 37.0949 14.238 34.2891 16.8775 35.2373C13.3542 35.9441 19.316 39.6622 18.5631 36.7266C20.0446 36.7999 21.4612 35.8419 20.6837 37.2958C23.6026 36.97 25.6262 34.4124 28.4457 34.7708C30.6419 34.4771 33.0432 34.2544 35.4099 33.3611C37.3558 33.2195 39.2289 31.1025 38.1623 29.8477C35.5087 29.6209 32.7309 29.9564 29.7979 30.5454C26.5478 31.2282 23.5956 32.5253 20.3163 33.0821C17.1199 33.5159 20.9593 34.2775 20.0437 34.4471C18.3758 35.0319 22.0328 35.4263 19.8274 36.0427C18.4655 35.781 17.0478 35.3082 17.6296 33.8579C14.5677 34.2593 11.8772 35.5434 14.2963 38.6919L14.4762 38.6932L14.4762 38.6931V38.6933ZM21.8542 34.8964C22.5721 32.2241 25.7003 37.0954 23.0308 35.2514C22.712 35.0103 22.1876 34.8136 21.8542 34.8964ZM21.9938 33.6008C23.03 32.8208 22.5446 34.0381 21.9938 33.6008V33.6008ZM23.3095 33.6219C23.403 32.3922 26.3212 34.2729 23.7907 34.0646L23.3095 33.6219ZM25.1092 32.8907C25.7664 32.1148 25.2981 33.5809 25.1092 32.8907V32.8907ZM25.5696 32.5792C26.6639 31.2506 31.7669 31.7313 28.0317 32.4497C27.0305 31.688 26.2631 32.8987 25.5696 32.5792ZM32.2291 31.5419C32.0626 27.9126 35.5376 32.8316 32.2291 31.5419V31.5419ZM34.1187 31.5315C34.8096 29.7023 36.7996 30.7975 34.4384 31.1639C34.4897 31.3586 34.3692 32.1082 34.1187 31.5315ZM18.8679 41.2321C20.9321 39.9548 16.6766 40.124 18.8679 41.2321V41.2321ZM20.3942 41.6606C21.1179 40.883 18.8216 41.3452 20.3942 41.6606V41.6606ZM15.8971 38.4356C17.0766 37.5201 14.5014 38.0876 15.8971 38.4356V38.4356ZM76.8478 76.9653C76.8819 75.9032 75.9463 77.444 76.8478 76.9653V76.9653ZM70.6544 72.6946C70.8306 71.4717 69.8586 72.8012 70.6544 72.6946V72.6946ZM78.5509 77.3772C80.2 77.3828 83.5475 76.8597 79.9594 76.8614C79.3963 76.9501 76.6786 76.9311 78.5509 77.3772L78.5509 77.3772V77.3772ZM21.7367 40.911C23.0713 40.8184 23.8247 39.4235 21.4786 39.5037C17.8424 39.1233 24.6867 40.7617 21.0121 40.2932C20.5183 40.6236 21.708 41.0025 21.7367 40.911ZM22.9121 41.5122C22.7727 40.6463 22.4994 41.9722 22.9121 41.5122V41.5122ZM24.3063 37.7554C24.8855 37.0296 23.5049 37.5614 24.3063 37.7554V37.7554ZM19.8678 30.2586C22.2497 29.4398 25.5069 28.5198 26.6315 30.6618C25.4869 29.2698 26.1696 27.8995 27.2506 29.9347C28.7792 31.9938 29.5445 28.9981 28.5503 28.3074C29.6833 29.7299 30.9719 30.4021 29.3088 28.3973C31.1161 26.2007 25.6902 28.685 24.457 28.6599C23.8636 28.9291 18.3309 30.0857 19.8678 30.2586V30.2586ZM21.2637 27.5572C22.6221 26.5212 25.9618 28.1735 23.8188 26.5276C23.6092 26.3406 19.1255 27.7757 21.2637 27.5572V27.5572ZM26.216 27.7638C27.8059 27.8048 25.5303 25.6057 27.4247 26.6022C27.1136 25.5751 25.2191 25.3829 24.2928 24.9725C23.769 25.9116 25.3592 27.7765 26.216 27.7638ZM22.1321 23.2213C22.6821 22.468 21.1682 23.6033 22.1321 23.2213V23.2213ZM24.1562 23.7109C26.7182 23.3675 23.5031 22.596 23.6399 23.6833L24.1562 23.7109V23.7109V23.7109ZM20.3768 20.7227C18.5729 18.3432 23.7694 21.1227 21.9366 18.6312C20.394 17.39 18.9116 20.028 20.3768 20.7227ZM43.5274 33.3227C44.3548 31.8406 40.1115 31.325 42.9699 32.7974C43.2331 32.8863 43.1735 33.4252 43.5274 33.3227Z" fill="white"/>
</svg>
