<svg width="1839" height="2500" viewBox="0 0 256 348" xmlns="http://www.w3.org/2000/svg" preserveAspectRatio="xMinYMin meet"><path d="M3.686 188.165c.498 10.26 10.758 5.479 15.34 2.291 4.383-3.088 5.678-.498 6.076-6.475.299-3.984.697-7.869.498-11.853-6.674-.598-13.846.996-19.325 4.98-2.888 1.992-8.068 8.567-2.59 11.057M208.187 314.272c7.869 4.881 22.313 19.624 10.459 26.796-11.356 10.36-17.73-11.456-27.692-14.444 4.283-5.877 9.662-11.256 17.233-12.352zM67.337 330.907c-9.264 1.395-14.444 9.762-22.213 14.046-7.272 4.283-10.061-1.395-10.659-2.59-1.095-.498-.996.498-2.789-1.295-6.773-10.659 6.973-18.428 14.145-23.708 9.961-1.992 16.237 6.674 21.516 13.547zM251.916 186.87c-.498 10.26-10.758 5.479-15.34 2.291-4.383-3.088-5.678-.498-6.076-6.475-.3-3.984-.698-7.869-.498-11.853 6.673-.598 13.845.996 19.324 4.98 2.79 1.992 8.069 8.567 2.59 11.057" fill="#F6D2A2"/><path d="M224.722 61.759c35.561-12.551 7.77-61.26-23.21-39.745-20.32-17.432-48.31-20.62-77.696-20.62C95.03 3.687 67.636 8.966 48.511 25.7 17.63 5.777-10.858 53.59 25.4 65.644c-10.16 39.445 1.394 79.688-.2 119.831-1.494 36.06-10.957 84.37 9.065 116.744 17.034 27.692 53.69 37.554 83.873 38.65 38.549 1.394 85.266-8.069 103.993-45.423 17.93-35.561 12.95-79.888 10.659-118.238-2.291-38.749 1.992-78.095-8.069-115.45z" fill="#69D7E2"/><path d="M254.605 180.794c-.996-2.092-2.888-4.483-4.681-5.778-4.582-3.287-10.46-5.08-16.536-5.279-.199-6.176-.398-12.95-.398-21.516v-7.77c-.1-24.504-.399-35.262-1.793-48.71-1.096-10.558-2.79-20.32-5.18-29.484 8.069-3.088 13.348-8.168 15.44-14.743 1.992-6.076.996-12.949-2.39-19.025-3.487-5.977-9.065-10.46-15.54-12.252-6.973-1.893-14.543-.498-21.815 4.382-6.475-5.478-13.945-9.662-22.313-12.85C164.557 2.292 147.325.2 123.916.2v.996l-.1-.996c-25.002 1.992-43.53 5.877-58.87 13.348-6.176 2.988-11.654 6.574-16.435 10.758-7.372-4.582-15.042-5.678-22.114-3.486-6.574 1.992-12.252 6.674-15.639 12.75-3.387 6.076-4.184 13.049-1.893 19.026 2.291 5.976 7.57 10.658 15.44 13.547-2.49 10.06-3.785 20.719-3.984 32.473-.2 11.455.298 20.62 2.091 41.338 1.295 15.44 1.793 22.512 1.993 31.079-6.774-.299-13.547 1.494-18.628 5.18-1.793 1.295-3.785 3.586-4.681 5.777-1.295 2.79-.797 5.28 1.793 6.774.398 4.781 3.088 6.972 7.172 6.574 2.988-.299 6.574-1.893 9.662-4.084a11.208 11.208 0 0 1 2.092-1.195c.299-.1.498-.2.797-.3 0 0 .597-.198.797-.298.298-.1.597-.2.796-.399-.199 4.682-.597 9.563-1.494 20.72-.996 12.55-1.494 19.424-1.693 27.094-.897 28.488 2.49 49.207 12.65 65.643 3.188 5.18 7.073 9.762 11.655 13.946-.897.597-4.682 3.387-5.877 4.283-4.184 3.188-7.072 5.877-8.766 8.865-2.191 3.885-2.191 7.77.299 11.854l.1.1.1.1c1.095 1.095 1.693 1.394 2.49 1.394H33.966c.1.2.2.299.3.498.298.498.597.896.896 1.295 2.49 2.889 5.976 3.586 10.658.797 2.49-1.295 4.283-2.79 8.068-5.977l.2-.2c6.076-5.179 9.064-7.071 13.547-7.769l1.594-.299c.597.3 1.195.499 1.892.797 14.145 5.678 30.58 8.766 47.216 9.364 21.516.797 42.235-1.893 59.766-8.268 4.682-1.693 9.065-3.686 13.249-5.877 2.59.996 4.78 3.088 8.965 7.969.199.2.199.2.298.398.2.2.2.3.3.399.198.299.497.498.696.797 3.288 3.884 5.48 5.777 7.97 6.873 3.286 1.394 6.474.697 9.761-2.291 5.778-3.586 6.176-9.164 2.39-15.54-2.689-4.482-7.37-9.164-11.753-12.152 5.18-5.08 9.662-11.156 13.148-18.03 9.563-19.125 13.249-41.438 13.05-70.126-.1-10.16-.499-19.025-1.594-35.96v-.497c.498.199.996.498 1.494.896 3.088 2.092 6.674 3.785 9.662 4.084 4.084.399 6.774-1.793 7.172-6.574 2.49-1.594 2.988-4.084 1.693-6.873zM222.93 18.328c5.977 1.594 11.157 5.778 14.344 11.356 3.188 5.578 4.084 11.854 2.291 17.432-1.892 5.877-6.674 10.559-14.145 13.348a162.04 162.04 0 0 0-5.279-15.739c2.889-2.49 4.283-5.578 1.992-9.96-2.29-4.384-6.275-4.882-10.36-3.587-2.59-3.387-5.478-6.375-8.466-9.164 6.574-4.184 13.348-5.379 19.623-3.686zM10.56 51.997c-2.092-5.38-1.395-11.754 1.793-17.332 3.187-5.579 8.367-9.961 14.543-11.754 6.375-1.893 13.248-.997 20.022 2.988a65.541 65.541 0 0 0-10.36 11.854c-5.18-2.69-10.459-3.188-13.447 2.29-3.088 5.878.498 9.563 5.578 12.352-.697 1.694-1.395 3.487-1.992 5.28-.698 2.191-1.395 4.482-1.992 6.773-7.272-2.789-12.053-7.072-14.145-12.451zm12.053 135.77c-.1 0-.698.199-.698.298-.298.1-.597.2-.896.399-.797.299-1.594.797-2.39 1.394-2.79 1.993-6.177 3.487-8.767 3.686-2.988.299-4.681-.996-4.98-4.582 2.092-.697 2.988-1.195 3.785-2.39l-1.594-1.196c-.597.797-1.195 1.096-2.988 1.693-.1 0-.1 0-.2.1-1.593-.897-1.892-2.291-.995-4.283.797-1.793 2.59-3.885 4.084-4.98 4.781-3.487 11.156-5.18 17.531-4.782 0 2.49.1 4.98 0 7.37 0 .3 0 .499-.1.798-.099 1.394-.099 1.992-.199 2.69-.298 2.888-.498 3.286-1.593 3.785zm30.082 150.312l-.2.2c-3.685 3.187-5.478 4.482-7.769 5.777-3.785 2.291-6.375 1.793-8.168-.398-.299-.3-.498-.698-.697-.997-.1-.1-.2-.298-.299-.398v-.1c.2-1.793.897-3.088 2.69-5.877.1-.1.1-.1.1-.199 1.095-1.594 1.593-2.49 2.091-3.586l-1.793-.797c-.398.897-.896 1.694-1.893 3.287-.1.1-.1.1-.1.2-1.792 2.59-2.59 4.183-2.988 5.976h-.1H33.27c-.2-.1-.498-.299-.896-.697-3.885-6.176-.797-11.455 7.968-18.03 1.096-.796 4.782-3.386 5.778-4.183.2 0 .398-.1.598-.2 5.378 4.583 11.654 8.567 18.627 11.854 0 .1.1.2.199.3-4.084.995-7.272 3.087-12.85 7.868zm167.247-10.857c3.088 5.18 2.988 9.363-.897 12.252-.298-.598-.498-1.295-.896-2.291 0-.1 0-.1-.1-.2-1.394-3.785-2.29-5.378-3.984-7.171l-1.395 1.394c1.494 1.395 2.192 2.889 3.586 6.375 0 .1 0 .1.1.2.498 1.294.797 2.091 1.096 2.789-2.59 2.191-4.881 2.59-7.272 1.494-2.092-.897-4.084-2.79-7.272-6.375-.199-.2-.398-.498-.597-.797-.1-.1-.2-.2-.3-.399-.198-.199-.198-.199-.298-.398-3.686-4.283-5.877-6.574-8.268-7.87 5.579-3.187 10.56-6.773 15.042-10.957 4.183 3.088 8.865 7.67 11.455 11.954zm1.394-32.274c-8.566 17.233-23.707 29.385-44.028 36.756-17.332 6.276-37.852 8.866-59.069 8.069-36.557-1.295-68.233-14.045-83.075-38.151-9.961-16.038-13.249-36.458-12.352-64.548.299-7.67.697-14.543 1.693-27.094 1.096-14.145 1.395-18.229 1.694-24.604.199-4.582.199-9.264.1-14.244-.2-8.766-.698-15.739-1.993-31.378-1.793-20.719-2.291-29.784-2.092-41.14.3-14.94 2.291-28.09 6.475-40.54C35.46 37.851 47.913 24.204 65.843 15.34 80.884 7.97 99.113 4.184 123.916 2.191c23.21 0 40.143 2.092 54.786 7.471 17.531 6.475 30.58 17.83 39.545 35.263 5.778 14.144 9.165 29.385 10.958 46.916 1.394 13.348 1.693 24.106 1.793 48.51v7.77c.1 12.053.298 20.52.797 28.987.199 3.287.298 4.682.796 12.551 1.096 16.934 1.495 25.7 1.594 35.86.2 28.588-3.387 50.602-12.85 69.429zm30.481-109.074c-.1 0-.199-.1-.298-.1-1.793-.597-2.391-.996-2.989-1.693l-1.594 1.195c.897 1.196 1.793 1.694 3.786 2.39-.399 3.587-2.092 4.882-4.98 4.583-2.59-.2-5.978-1.793-8.767-3.686-.797-.597-1.593-.996-2.39-1.394-.1 0-.2-.1-.3-.1-.398-5.478-.398-6.873-.597-9.762l-.299-5.379c5.579.1 11.057 1.793 15.24 4.881 1.495 1.096 3.288 3.188 4.085 4.98.996 1.694.797 3.188-.897 4.085z"/><path d="M138.918 104.123c.1 5.08 1.096 10.658.199 16.037-1.395 2.59-3.984 2.89-6.275 3.885-3.188-.498-5.878-2.59-7.172-5.578-.797-6.076.199-11.854.498-17.93 0-.2 3.785.1 7.172 1.096 2.888.896 5.578 2.39 5.578 2.49zM110.728 104.521c-2.79 10.56 3.686 27.792 14.344 13.647-.797-5.977.1-11.754.398-17.631.1-.498-14.642 3.287-14.742 3.984z" fill="#FFF"/><path d="M140.113 108.805c-.2-2.989-.299-4.184-.299-5.678v-.697l-.697-.2-12.551-3.884v-.698l-1.295.3h-.1v.099l-14.144 3.586-.498.1-.2.497c-2.191 5.28-1.693 13.249 1.096 18.13 3.188 5.578 8.367 5.677 13.647-.698a10.192 10.192 0 0 0 7.47 5.38h.3l.298-.1c.399-.2.797-.3 1.495-.598.1 0 .1 0 .199-.1 2.888-.996 4.084-1.793 5.08-3.685l.1-.1v-.199c.298-1.793.398-3.686.398-5.777 0-1.495-.1-2.89-.299-5.678zm-15.938-3.686c-.1 1.793-.199 2.49-.298 3.486-.2 3.686-.2 6.475.1 9.264-4.683 5.977-8.368 5.977-10.858 1.494-2.391-4.183-2.89-11.256-1.096-15.937l12.55-3.188c-.099 1.295-.198 2.59-.398 4.881zm13.946 14.743c-.697 1.195-1.594 1.793-3.985 2.59-.1 0-.1 0-.199.099-.597.2-.996.398-1.295.498-2.69-.498-4.98-2.291-6.076-4.781-.299-2.69-.299-5.479-.1-9.164.1-.997.1-1.694.3-3.487.198-2.29.298-3.685.298-4.98l10.858 3.287c0 1.295.1 2.49.299 5.08.199 2.69.298 4.084.298 5.678 0 1.892-.1 3.586-.398 5.18z"/><g transform="translate(48.476 21.976)"><path d="M2.291 38.749c9.164 35.66 66.241 26.496 64.05-9.264C63.75-13.348-6.475-5.08 2.29 38.749" fill="#FFF"/><path d="M67.337 29.385c-.598-10.36-5.18-18.428-12.75-23.508C47.813 1.295 38.848-.498 29.983.597 21.118 1.794 12.949 5.778 7.57 12.054 1.594 19.026-.697 28.19 1.395 38.749l.896-.2-.896.2c9.363 36.656 68.133 27.791 65.942-9.364zM3.187 38.55c-1.992-10.06.2-18.627 5.778-25.102 5.08-5.877 12.75-9.761 21.217-10.857 8.467-1.096 16.934.598 23.31 4.98 7.071 4.782 11.355 12.253 11.952 22.114 2.092 34.764-53.391 43.132-62.256 8.865z"/><ellipse cx="18.03" cy="32.872" rx="9.662" ry="10.459"/><ellipse fill="#FFF" cx="22.412" cy="35.262" rx="2.291" ry="2.689"/></g><g transform="translate(129.618 18.098)"><path d="M1.195 35.96C8.268 76.9 75.206 66.042 65.544 24.803 56.878-12.252-1.196-1.992 1.195 35.96" fill="#FFF"/><path d="M66.44 24.604C57.575-13.547-2.19-3.088.2 36.059v.1c3.286 19.324 20.52 29.186 39.545 25.998C48.41 60.663 56.18 56.48 61.26 50.304c5.578-6.874 7.57-15.739 5.18-25.7zm-6.673 24.504c-4.782 5.778-12.053 9.762-20.321 11.157-18.03 2.988-34.167-6.276-37.354-24.405C-.1-.996 56.28-10.858 64.647 25.002c2.192 9.463.399 17.731-4.88 24.106z"/><ellipse cx="17.631" cy="34.167" rx="9.463" ry="10.459"/><ellipse fill="#FFF" cx="22.014" cy="36.557" rx="2.191" ry="2.689"/></g><g><path d="M112.785 83.002c-7.87.697-14.245 9.961-10.16 17.332 5.378 9.762 17.431-.896 24.902.1 8.666.2 15.739 9.164 22.612 1.594 7.67-8.368-3.287-16.536-11.954-20.122l-25.4 1.096z" fill="#F6D2A2"/><path d="M151.135 89.676c-2.69-3.387-7.371-6.475-12.452-8.567l-.199-.1h-.199l-25.5.997c-8.866.797-15.24 11.057-10.958 18.826 1.694 2.989 3.985 4.483 7.073 4.682 2.29.1 4.682-.398 8.367-1.693.299-.1.697-.2 1.195-.399 4.981-1.693 6.973-2.191 8.965-1.892h.1c2.39 0 4.383.697 8.168 2.191 4.184 1.693 5.479 2.192 7.57 2.39 2.89.2 5.38-.796 7.67-3.286 3.885-4.284 3.686-8.866.2-13.149zm-1.694 11.754c-1.892 2.092-3.785 2.79-6.076 2.69-1.793-.1-2.988-.598-6.973-2.192-3.984-1.693-6.175-2.29-8.765-2.39-2.49-.3-4.582.199-9.862 1.992-.498.199-.896.299-1.195.398-7.272 2.49-10.758 2.291-13.149-2.092-3.586-6.474 1.893-15.24 9.364-15.937l25.201-.997c4.782 1.993 9.065 4.881 11.555 7.97 2.988 3.585 3.088 7.171-.1 10.558z" fill="#231F20"/><path d="M140.178 78.719c-3.088-11.356-28.987-9.662-28.39 3.885 1.295 10.06 31.378 7.37 28.39-3.885z"/></g></svg>