<svg width="80" height="80" viewBox="0 0 80 80" fill="none" xmlns="http://www.w3.org/2000/svg">
  <g clip-path="url(#clip0_443_387)">
    <path d="M40 80C62.0914 80 80 62.0914 80 40C80 17.9086 62.0914 0 40 0C17.9086 0 0 17.9086 0 40C0 62.0914 17.9086 80 40 80Z" fill="#5C2D91" />
    <path opacity="0.1" d="M12.275 11.25C8.20872 14.8735 4.92526 19.2893 2.62591 24.2267C0.326555 29.164 -0.940252 34.519 -1.09686 39.9632C-1.25347 45.4075 -0.296589 50.8264 1.71514 55.8878C3.72687 60.9492 6.75105 65.5464 10.6023 69.3977C14.4536 73.249 19.0508 76.2731 24.1122 78.2849C29.1736 80.2966 34.5925 81.2535 40.0368 81.0969C45.481 80.9403 50.836 79.6735 55.7734 77.3741C60.7107 75.0748 65.1265 71.7913 68.75 67.725L12.275 11.25Z" fill="white" />
    <path d="M9.25093 46.5626C9.0176 46.5663 8.78604 46.5215 8.57089 46.4312C8.35574 46.3408 8.16166 46.2068 8.00093 46.0376C7.83579 45.8745 7.70528 45.6797 7.61722 45.4649C7.52916 45.2501 7.48535 45.0197 7.48843 44.7876C7.48677 44.5557 7.53122 44.3258 7.6192 44.1112C7.70718 43.8966 7.83694 43.7016 8.00093 43.5376C8.16009 43.3656 8.35358 43.2288 8.5689 43.1362C8.78422 43.0436 9.01657 42.9973 9.25093 43.0001C9.48496 42.9996 9.71662 43.0469 9.93161 43.1394C10.1466 43.2318 10.3404 43.3674 10.5009 43.5376C10.6678 43.7002 10.8002 43.8946 10.8904 44.1093C10.9806 44.324 11.0267 44.5547 11.0259 44.7876C11.0281 45.0207 10.9827 45.2518 10.8924 45.4668C10.8021 45.6817 10.6689 45.876 10.5009 46.0376C10.3388 46.205 10.1445 46.3378 9.92967 46.4281C9.71484 46.5183 9.48395 46.5641 9.25093 46.5626Z" fill="white" />
    <path d="M34.0883 46.2504H30.8133L19.1008 28.0754C18.809 27.6276 18.566 27.1499 18.3758 26.6504H18.2758C18.3871 27.6881 18.4289 28.7321 18.4008 29.7754V46.2504H15.7383V23.4629H19.2008L30.6008 41.3129C31.0758 42.0546 31.3841 42.5629 31.5258 42.8379H31.5883C31.4564 41.7264 31.4021 40.607 31.4258 39.4879V23.4629H34.0883V46.2504Z" fill="white" />
    <path d="M52.1125 46.2504H40V23.4629H51.55V25.8754H42.725V33.4504H50.95V35.8504H42.725V43.7504H52.125L52.1125 46.2504Z" fill="white" />
    <path d="M69.9996 25.8754H63.3746V46.2504H60.7121V25.8754H54.1621V23.4629H69.9996V25.8754Z" fill="white" />
    <path d="M32.65 61.7505C31.7476 62.1875 30.7521 62.3978 29.75 62.363C29.0841 62.393 28.4195 62.2802 27.8008 62.0323C27.182 61.7844 26.6234 61.407 26.1625 60.9255C25.244 59.8974 24.7601 58.5531 24.8125 57.1755C24.7789 56.4296 24.8954 55.6845 25.1553 54.9845C25.4151 54.2845 25.8129 53.6438 26.325 53.1005C26.8241 52.5892 27.4241 52.1873 28.087 51.9205C28.7498 51.6536 29.4609 51.5276 30.175 51.5505C31.0297 51.5213 31.8811 51.6703 32.675 51.988V53.238C31.9106 52.8148 31.0486 52.5993 30.175 52.613C29.6242 52.5975 29.0766 52.7011 28.5696 52.9169C28.0626 53.1326 27.6082 53.4553 27.2375 53.863C26.4579 54.7511 26.0545 55.9077 26.1125 57.088C26.0541 58.2061 26.4304 59.3034 27.1625 60.1505C27.5137 60.5281 27.9424 60.8253 28.4192 61.0216C28.8961 61.218 29.4098 61.3088 29.925 61.288C30.8848 61.3131 31.8326 61.0707 32.6625 60.588L32.65 61.7505Z" fill="#F2F2F2" />
    <path d="M37.7625 62.3626C37.2649 62.3787 36.7697 62.2877 36.3103 62.0957C35.851 61.9038 35.4382 61.6154 35.1 61.2501C34.4165 60.4873 34.0616 59.4855 34.1125 58.4626C34.0813 57.9266 34.1569 57.3898 34.335 56.8834C34.5132 56.377 34.7902 55.911 35.15 55.5126C35.5172 55.1542 35.9541 54.875 36.4336 54.6922C36.913 54.5095 37.4249 54.427 37.9375 54.4501C38.422 54.4243 38.9064 54.5036 39.3574 54.6827C39.8083 54.8618 40.2152 55.1364 40.55 55.4876C41.2144 56.2882 41.5495 57.3115 41.4875 58.3501C41.5399 59.4041 41.1764 60.4365 40.475 61.2251C40.1304 61.5975 39.71 61.8917 39.2421 62.088C38.7742 62.2842 38.2697 62.3778 37.7625 62.3626V62.3626ZM37.85 55.5251C37.5062 55.5106 37.1635 55.5739 36.8475 55.7102C36.5315 55.8466 36.2504 56.0525 36.025 56.3126C35.544 56.9319 35.3042 57.7047 35.35 58.4876C35.3063 59.2471 35.547 59.9957 36.025 60.5876C36.2527 60.844 36.5346 61.0465 36.8502 61.1806C37.1659 61.3146 37.5074 61.3768 37.85 61.3626C38.1854 61.3824 38.521 61.3251 38.8308 61.1951C39.1407 61.065 39.4166 60.8658 39.6375 60.6126C40.092 59.9916 40.3132 59.2304 40.2625 58.4626C40.3119 57.691 40.0909 56.9263 39.6375 56.3001C39.4197 56.0416 39.1449 55.837 38.8348 55.7026C38.5247 55.5681 38.1876 55.5074 37.85 55.5251V55.5251Z" fill="#F2F2F2" />
    <path d="M47.3254 55.9C47.0554 55.7232 46.7348 55.6397 46.4129 55.6625C46.1611 55.6717 45.9154 55.7426 45.6974 55.869C45.4794 55.9954 45.2959 56.1735 45.1629 56.3875C44.7908 56.9766 44.6117 57.6669 44.6504 58.3625V62.1875H43.4004V54.6875H44.6504V56.25C44.7878 55.7666 45.0611 55.3327 45.4379 55C45.7639 54.7171 46.1812 54.5617 46.6129 54.5625C46.8545 54.5517 47.0961 54.5856 47.3254 54.6625V55.9Z" fill="#F2F2F2" />
    <path d="M54.6492 58.7505H49.3617C49.3263 59.4493 49.5537 60.136 49.9992 60.6755C50.2309 60.9066 50.5088 61.0862 50.8147 61.2025C51.1205 61.3188 51.4475 61.3693 51.7742 61.3505C52.6216 61.3421 53.4411 61.0469 54.0992 60.513V61.638C53.3264 62.1474 52.4112 62.397 51.4867 62.3505C51.0203 62.3741 50.5544 62.2944 50.1223 62.1172C49.6901 61.9401 49.3024 61.6697 48.9867 61.3255C48.336 60.5138 48.0107 59.4889 48.0742 58.4505C48.0293 57.4096 48.3824 56.3905 49.0617 55.6005C49.3709 55.2434 49.7556 54.9594 50.1879 54.7692C50.6203 54.5789 51.0895 54.4872 51.5617 54.5005C51.9881 54.4766 52.4143 54.5497 52.8083 54.7143C53.2024 54.8788 53.554 55.1305 53.8367 55.4505C54.4123 56.2095 54.6962 57.1499 54.6367 58.1005L54.6492 58.7505ZM53.3992 57.738C53.4246 57.1588 53.2478 56.5888 52.8992 56.1255C52.7282 55.9323 52.5157 55.7802 52.2776 55.6806C52.0395 55.581 51.7819 55.5366 51.5242 55.5505C51.2552 55.5472 50.9885 55.6 50.741 55.7054C50.4935 55.8109 50.2707 55.9667 50.0867 56.163C49.6753 56.5983 49.4165 57.1554 49.3492 57.7505L53.3992 57.738Z" fill="#F2F2F2" />
  </g>
</svg>
