<svg width="80" height="80" viewBox="0 0 80 80" fill="none" xmlns="http://www.w3.org/2000/svg">
<path d="M11.7532 43.2544C11.8677 45.6129 14.2262 44.5139 15.2795 43.781C16.287 43.0712 16.5847 43.6666 16.6762 42.2926C16.7449 41.3768 16.8364 40.4837 16.7907 39.5679C15.2565 39.4304 13.6078 39.7968 12.3483 40.7127C11.6845 41.1706 10.4937 42.682 11.753 43.2544M58.7629 72.2432C60.5717 73.3653 63.8921 76.7543 61.1671 78.403C58.5567 80.7845 57.0914 75.7695 54.8014 75.0827C55.786 73.7317 57.0225 72.4952 58.7629 72.2432ZM26.385 76.0672C24.2554 76.3879 23.0646 78.3113 21.2787 79.296C19.6071 80.2806 18.966 78.9754 18.8285 78.7007C18.5768 78.5862 18.5996 78.8151 18.1874 78.403C16.6304 75.9527 19.7903 74.1668 21.439 72.9531C23.7288 72.4952 25.1714 74.4873 26.385 76.0672V76.0672ZM68.8151 42.9567C68.7006 45.3152 66.3421 44.2162 65.2888 43.4833C64.2812 42.7735 63.9835 43.3689 63.8921 41.9949C63.8231 41.0791 63.7316 40.186 63.7776 39.2702C65.3115 39.1327 66.9602 39.4992 68.2197 40.415C68.861 40.8729 70.0745 42.3843 68.8151 42.9567" fill="#F6D2A2"/>
<path d="M62.5634 14.1967C70.738 11.3116 64.3496 0.114574 57.228 5.06034C52.557 1.05315 46.1228 0.320312 39.3677 0.320312C32.7505 0.847416 26.4533 2.06093 22.0569 5.90765C14.9582 1.32785 8.40949 12.3189 16.7443 15.0898C14.4088 24.1572 17.0647 33.4081 16.6983 42.6359C16.3549 50.9252 14.1796 62.0305 18.7821 69.4725C22.6978 75.8382 31.1241 78.1052 38.0624 78.3571C46.9239 78.6776 57.663 76.5023 61.9678 67.9155C66.0895 59.7409 64.9447 49.5513 64.4181 40.7356C63.8914 31.8281 64.876 22.7835 62.5632 14.1965L62.5634 14.1967Z" fill="#69D7E2"/>
<path d="M69.4335 41.5599C69.2046 41.079 68.7697 40.5294 68.3575 40.2317C67.3042 39.4761 65.953 39.064 64.5563 39.0182C64.5105 37.5985 64.4648 36.0413 64.4648 34.0722V32.2861C64.4418 26.6532 64.3731 24.1802 64.0526 21.0889C63.8007 18.6619 63.4113 16.4178 62.8619 14.3113C64.7167 13.6014 65.9302 12.4336 66.4111 10.9222C66.869 9.52548 66.6401 7.94555 65.8617 6.54883C65.0602 5.17487 63.7779 4.14434 62.2895 3.7324C60.6866 3.29725 58.9464 3.61793 57.2748 4.73972C55.7863 3.48046 54.0691 2.51866 52.1456 1.78582C48.7338 0.526797 44.7725 0.0458984 39.3914 0.0458984V0.274854L39.3684 0.0458984C33.6211 0.503809 29.362 1.39687 25.8357 3.11427C24.416 3.80114 23.1567 4.62547 22.0577 5.58726C20.363 4.53398 18.5999 4.28203 16.9742 4.78592C15.463 5.24383 14.1578 6.32011 13.3792 7.71683C12.6006 9.11355 12.4174 10.7165 12.9441 12.0904C13.4707 13.4642 14.6842 14.5404 16.4933 15.2045C15.9209 17.5171 15.6232 19.9673 15.5775 22.6693C15.5315 25.3025 15.646 27.4093 16.0582 32.1718C16.3559 35.7211 16.4703 37.3468 16.5163 39.3161C14.9591 39.2474 13.4022 39.6596 12.2342 40.5069C11.822 40.8046 11.3641 41.3312 11.1582 41.8349C10.8605 42.4762 10.9749 43.0486 11.5703 43.392C11.6618 44.4911 12.2802 44.9947 13.219 44.9032C13.9059 44.8345 14.7302 44.4681 15.44 43.9644C15.59 43.8559 15.7512 43.7638 15.9209 43.6897C15.9897 43.6667 16.0354 43.6438 16.1041 43.6208C16.1041 43.6208 16.2414 43.5753 16.2874 43.5523C16.3559 43.5293 16.4246 43.5063 16.4703 43.4605C16.4246 44.5368 16.3331 45.6588 16.1269 48.2236C15.8979 51.1085 15.7835 52.6887 15.7377 54.4518C15.5315 61.0005 16.3101 65.7632 18.6456 69.5415C19.3785 70.7322 20.2715 71.7855 21.3248 72.7473C21.1186 72.8845 20.2486 73.5259 19.9739 73.7319C19.0121 74.4647 18.3482 75.0828 17.9588 75.7697C17.4551 76.6628 17.4551 77.5558 18.0275 78.4946L18.0505 78.5176L18.0735 78.5406C18.3252 78.7923 18.4627 78.8611 18.6459 78.8611H18.7141C18.7371 78.907 18.7601 78.9298 18.7831 78.9755C18.8516 79.09 18.9203 79.1815 18.9891 79.2732C19.5615 79.9373 20.3628 80.0976 21.4391 79.4564C22.0115 79.1588 22.4236 78.8151 23.2937 78.0825L23.3397 78.0365C24.7364 76.846 25.4233 76.4111 26.4538 76.2506L26.8202 76.1819C26.9575 76.2508 27.0949 76.2966 27.2552 76.3651C30.5067 77.6703 34.2847 78.3802 38.1089 78.5176C43.0549 78.7008 47.8177 78.0825 51.8476 76.617C52.9239 76.2278 53.9315 75.7697 54.8933 75.266C55.4886 75.495 55.9921 75.9759 56.9541 77.0979C56.9998 77.1439 56.9998 77.1439 57.0226 77.1894C57.0686 77.2354 57.0686 77.2584 57.0915 77.2811C57.1371 77.3499 57.2058 77.3956 57.2515 77.4643C58.0074 78.3572 58.5113 78.7923 59.0836 79.0443C59.839 79.3647 60.5719 79.2045 61.3275 78.5176C62.6557 77.6933 62.7472 76.4111 61.8769 74.9454C61.2587 73.9151 60.1827 72.8388 59.1751 72.1519C60.3659 70.9842 61.3962 69.5874 62.1975 68.0073C64.3958 63.6109 65.2431 58.4817 65.1974 51.8871C65.1744 49.5515 65.0827 47.5137 64.831 43.6208V43.5065C64.9455 43.5523 65.0599 43.621 65.1744 43.7125C65.8843 44.1934 66.7086 44.5826 67.3955 44.6513C68.3343 44.743 68.9526 44.2391 69.0441 43.1401C69.6165 42.7737 69.731 42.2013 69.4333 41.5602L69.4335 41.5599ZM62.1522 4.21307C63.5262 4.57949 64.717 5.54129 65.4496 6.82353C66.1824 8.10577 66.3884 9.54847 65.9762 10.8307C65.5413 12.1817 64.442 13.258 62.7246 13.8991C62.3822 12.6731 61.9772 11.4656 61.5111 10.2811C62.1752 9.70869 62.4957 8.99884 61.969 7.99153C61.4426 6.98376 60.5266 6.86928 59.5875 7.16697C58.9922 6.38838 58.3283 5.70151 57.6414 5.06039C59.1526 4.09859 60.7098 3.82389 62.1522 4.21307V4.21307ZM13.3337 11.9527C12.8528 10.716 13.013 9.25078 13.7459 7.96854C14.4785 6.68607 15.6692 5.67875 17.0889 5.26659C18.5544 4.83144 20.1343 5.0374 21.6915 5.95346C20.791 6.76278 19.9914 7.67769 19.31 8.67839C18.1192 8.06003 16.9057 7.94555 16.2189 9.20481C15.509 10.556 16.3333 11.4031 17.5011 12.0442C17.3409 12.4336 17.1804 12.8458 17.0432 13.258C16.8827 13.7616 16.7225 14.2883 16.5853 14.8149C14.9136 14.1738 13.8146 13.1892 13.3337 11.9527V11.9527ZM16.1044 43.1629C16.0814 43.1629 15.9439 43.2086 15.9439 43.2314C15.8754 43.2544 15.8067 43.2773 15.738 43.3231C15.5547 43.3918 15.3715 43.5063 15.1886 43.6435C14.5472 44.1017 13.7686 44.4451 13.1732 44.4908C12.4864 44.5596 12.0972 44.2619 12.0285 43.4376C12.5094 43.2773 12.7153 43.1629 12.8985 42.8882L12.5321 42.6132C12.3949 42.7964 12.2574 42.8652 11.8453 43.0024C11.8223 43.0024 11.8223 43.0024 11.7993 43.0254C11.4331 42.8192 11.3644 42.4988 11.5706 42.0408C11.7538 41.6287 12.1659 41.1478 12.5094 40.8961C13.6084 40.0945 15.0738 39.7053 16.5393 39.7968C16.5393 40.3692 16.5623 40.9416 16.5393 41.491C16.5393 41.5599 16.5393 41.6057 16.5163 41.6744C16.4936 41.9949 16.4936 42.1323 16.4706 42.2928C16.4021 42.9567 16.3561 43.0482 16.1044 43.1629V43.1629ZM23.0195 77.7158L22.9735 77.7618C22.1264 78.4944 21.7142 78.7921 21.1876 79.0898C20.3175 79.6164 19.7221 79.502 19.31 78.9983C19.2412 78.9293 19.1955 78.8378 19.1498 78.7691C19.1268 78.7461 19.1038 78.7006 19.081 78.6776V78.6546C19.127 78.2425 19.2872 77.9448 19.6994 77.3037C19.7224 77.2807 19.7224 77.2807 19.7224 77.2579C19.9741 76.8915 20.0886 76.6855 20.203 76.4336L19.7909 76.2504C19.6994 76.4566 19.5849 76.6398 19.3557 77.006C19.3327 77.029 19.3327 77.029 19.3327 77.0519C18.9208 77.6473 18.7374 78.0135 18.6459 78.4257H18.6229H18.5542C18.5082 78.4027 18.4397 78.3569 18.3482 78.2655C17.4551 76.8457 18.165 75.6322 20.1798 74.1208C20.4318 73.9378 21.2791 73.3425 21.508 73.1592C21.554 73.1592 21.5995 73.1363 21.6455 73.1133C22.8818 74.1668 24.3245 75.0826 25.9274 75.8382C25.9274 75.8612 25.9504 75.8842 25.9731 75.9072C25.0343 76.1359 24.3015 76.6168 23.0192 77.7158H23.0195ZM61.4654 75.2201C62.1752 76.4108 62.1522 77.3724 61.2592 78.0365C61.1907 77.899 61.1447 77.7388 61.0532 77.5099C61.0532 77.4869 61.0532 77.4869 61.0302 77.4639C60.7098 76.5938 60.5038 76.2276 60.1144 75.8155L59.7937 76.1359C60.1372 76.4566 60.2976 76.8 60.6181 77.6013C60.6181 77.6243 60.6181 77.6243 60.641 77.6473C60.7555 77.9448 60.8243 78.128 60.893 78.2884C60.2976 78.7921 59.771 78.8838 59.2213 78.6319C58.7404 78.4257 58.2825 77.9905 57.5497 77.1664C57.5039 77.1204 57.4582 77.0519 57.4125 76.9832C57.3895 76.9602 57.3665 76.9372 57.3435 76.8915C57.298 76.8458 57.298 76.8457 57.275 76.8C56.4277 75.8154 55.924 75.2888 55.3744 74.9909C56.6569 74.2583 57.8019 73.4339 58.8322 72.4721C59.7937 73.182 60.87 74.2353 61.4654 75.2201V75.2201ZM61.7858 67.8011C59.8167 71.7625 56.3362 74.556 51.6649 76.2504C47.6807 77.6931 42.9637 78.2884 38.0864 78.1052C29.6829 77.8075 22.4013 74.8766 18.9895 69.3353C16.6998 65.6485 15.9439 60.9545 16.1501 54.4973C16.2189 52.7342 16.3103 51.1542 16.5393 48.2691C16.7912 45.0175 16.86 44.0787 16.9287 42.6132C16.9745 41.5599 16.9745 40.4837 16.9517 39.3389C16.9057 37.3238 16.7912 35.7209 16.4936 32.1259C16.0814 27.3631 15.9669 25.2793 16.0127 22.6688C16.0816 19.2345 16.5393 16.2116 17.5011 13.3497C19.0576 8.70092 21.9202 5.56382 26.0419 3.52621C29.4994 1.83203 33.6898 0.96172 39.3914 0.50358C44.7268 0.50358 48.6193 0.984478 51.9853 2.22098C56.0153 3.70942 59.0149 6.31965 61.0757 10.3271C62.404 13.5784 63.1825 17.0819 63.5947 21.1119C63.9152 24.1802 63.9839 26.6532 64.0069 32.2631V34.0492C64.0299 36.8199 64.0754 38.7663 64.1901 40.7126C64.2358 41.4682 64.2586 41.7889 64.3731 43.5978C64.625 47.4905 64.7167 49.5056 64.7395 51.8411C64.7855 58.4128 63.9609 63.4732 61.7856 67.8011H61.7858ZM68.7926 42.7277C68.7697 42.7277 68.7469 42.7047 68.7241 42.7047C68.312 42.5675 68.1745 42.4758 68.037 42.3155L67.6706 42.5902C67.8768 42.8652 68.0828 42.9796 68.5409 43.1396C68.4492 43.9642 68.06 44.2619 67.3962 44.1932C66.8008 44.1472 66.022 43.781 65.3808 43.3458C65.1976 43.2086 65.0146 43.1169 64.8314 43.0254C64.8085 43.0254 64.7855 43.0024 64.7625 43.0024C64.671 41.7432 64.671 41.4225 64.6252 40.7584L64.5565 39.5219C65.839 39.5449 67.0982 39.934 68.0598 40.6439C68.4035 40.8958 68.8156 41.3767 68.9988 41.7887C69.2278 42.1781 69.1821 42.5215 68.7926 42.7277V42.7277Z" fill="black"/>
<path d="M42.84 23.9354C42.8629 25.1032 43.0919 26.3854 42.8857 27.6219C42.565 28.2173 41.9699 28.2863 41.4432 28.515C40.7104 28.4005 40.092 27.9196 39.7946 27.2328C39.6114 25.836 39.8403 24.5078 39.9091 23.1111C39.9091 23.0651 40.7791 23.1341 41.5577 23.3631C42.2216 23.569 42.84 23.9125 42.84 23.9354V23.9354ZM36.3598 24.0269C35.7184 26.4544 37.2071 30.4156 39.6571 27.164C39.4739 25.7901 39.6801 24.4621 39.7486 23.1111C39.7716 22.9966 36.3828 23.8667 36.3598 24.0269V24.0269Z" fill="white"/>
<path d="M43.1139 25.012C43.068 24.3249 43.0452 24.0502 43.0452 23.7067V23.5465L42.885 23.5006L39.9998 22.6077V22.4473L39.7021 22.5162H39.6791V22.539L36.4278 23.3633L36.3133 23.3863L36.2673 23.5006C35.7637 24.7143 35.8782 26.5462 36.5193 27.6682C37.2521 28.9504 38.4426 28.9732 39.6564 27.5077C39.8255 27.8341 40.0691 28.1162 40.3674 28.331C40.6657 28.5459 41.0104 28.6875 41.3735 28.7445H41.4425L41.511 28.7215C41.6027 28.6755 41.6942 28.6525 41.8547 28.584C41.8777 28.584 41.8777 28.584 41.9004 28.561C42.5643 28.3321 42.8392 28.1489 43.0682 27.7139L43.0912 27.6909V27.6452C43.1597 27.233 43.1827 26.7979 43.1827 26.3172C43.1827 25.9735 43.1597 25.6529 43.1139 25.012ZM39.4502 24.1647C39.4272 24.5768 39.4044 24.7371 39.3817 24.966C39.3357 25.8133 39.3357 26.4544 39.4047 27.0956C38.3282 28.4695 37.4811 28.4695 36.9087 27.439C36.3591 26.4774 36.2443 24.8515 36.6567 23.7755L39.5417 23.0426C39.5189 23.3403 39.4962 23.638 39.4502 24.1647ZM42.656 27.5537C42.4958 27.8284 42.2896 27.9659 41.74 28.1491C41.717 28.1491 41.717 28.1491 41.6942 28.1718C41.557 28.2178 41.4653 28.2633 41.3965 28.2863C40.7782 28.1718 40.2518 27.7597 39.9998 27.1873C39.9311 26.5689 39.9311 25.9278 39.9768 25.0807C39.9998 24.8515 39.9998 24.6913 40.0458 24.2791C40.0913 23.7527 40.1143 23.432 40.1143 23.1344L42.6103 23.89C42.6103 24.1876 42.6333 24.4623 42.679 25.0577C42.7247 25.6761 42.7475 25.9965 42.7475 26.363C42.7475 26.7979 42.7245 27.1873 42.656 27.5537Z" fill="black"/>
<path d="M22.5764 13.959C24.683 22.1563 37.8036 20.0497 37.2999 11.8294C36.7043 1.98315 20.5614 3.88376 22.5762 13.959" fill="white"/>
<path d="M37.5281 11.8066C37.3906 9.42506 36.3373 7.57043 34.5972 6.40266C33.04 5.34937 30.9792 4.93721 28.9413 5.18892C26.9035 5.46408 25.0256 6.3799 23.7891 7.8226C22.4154 9.42529 21.8887 11.5319 22.3696 13.9591L22.5756 13.9131L22.3696 13.9591C24.522 22.3854 38.0317 20.3476 37.5281 11.8066V11.8066ZM22.7816 13.9134C22.3237 11.6008 22.8276 9.63149 24.1098 8.14305C25.2776 6.79207 27.0407 5.89924 28.9871 5.64729C30.9334 5.39535 32.8798 5.78476 34.3454 6.79207C35.9709 7.89133 36.9557 9.60873 37.0929 11.8755C37.5738 19.8669 24.8197 21.7905 22.7818 13.9134H22.7816Z" fill="black"/>
<path d="M26.1936 15.0126C27.4203 15.0126 28.4147 13.9362 28.4147 12.6084C28.4147 11.2805 27.4203 10.2041 26.1936 10.2041C24.967 10.2041 23.9726 11.2805 23.9726 12.6084C23.9726 13.9362 24.967 15.0126 26.1936 15.0126Z" fill="black"/>
<path d="M27.2004 13.7753C27.4913 13.7753 27.7271 13.4986 27.7271 13.1572C27.7271 12.8158 27.4913 12.5391 27.2004 12.5391C26.9096 12.5391 26.6738 12.8158 26.6738 13.1572C26.6738 13.4986 26.9096 13.7753 27.2004 13.7753Z" fill="white"/>
<path d="M40.9774 12.4262C42.6033 21.8373 57.9907 19.3413 55.7696 9.86152C53.7775 1.34351 40.4277 3.70202 40.9774 12.4262Z" fill="white"/>
<path d="M55.9753 9.81593C53.9375 1.04597 40.199 3.45023 40.7484 12.4492V12.4721C41.5038 16.9142 45.4654 19.1813 49.8388 18.4484C51.8307 18.105 53.6168 17.1434 54.7846 15.7237C56.0668 14.1436 56.5247 12.1057 55.9753 9.81593V9.81593ZM54.4414 15.4488C53.3421 16.777 51.6707 17.6928 49.7701 18.0135C45.6254 18.7004 41.9159 16.5708 41.1833 12.4034C40.6794 3.93113 53.6398 1.66411 55.5631 9.90742C56.067 12.0827 55.6549 13.9833 54.4414 15.4488V15.4488Z" fill="black"/>
<path d="M44.7553 14.4189C45.9567 14.4189 46.9306 13.3425 46.9306 12.0146C46.9306 10.6868 45.9567 9.61035 44.7553 9.61035C43.5539 9.61035 42.58 10.6868 42.58 12.0146C42.58 13.3425 43.5539 14.4189 44.7553 14.4189Z" fill="black"/>
<path d="M45.7634 13.1816C46.0415 13.1816 46.267 12.9048 46.267 12.5634C46.267 12.2221 46.0415 11.9453 45.7634 11.9453C45.4852 11.9453 45.2597 12.2221 45.2597 12.5634C45.2597 12.9048 45.4852 13.1816 45.7634 13.1816Z" fill="white"/>
<path d="M36.833 19.0801C35.0239 19.2403 33.5585 21.3699 34.4975 23.0643C35.7338 25.3083 38.5044 22.8583 40.2218 23.0872C42.2139 23.1332 43.8398 25.1938 45.4198 23.4537C47.1829 21.5301 44.6642 19.6525 42.6718 18.8281L36.833 19.0801Z" fill="#F6D2A2"/>
<path d="M45.6483 20.6144C45.03 19.8358 43.9539 19.126 42.7859 18.6451L42.7402 18.6221H42.6944L36.8326 18.8513C34.7946 19.0345 33.3293 21.393 34.3137 23.1789C34.7031 23.866 35.2297 24.2094 35.9396 24.2552C36.466 24.2781 37.0158 24.1637 37.8629 23.866C37.9317 23.843 38.0232 23.82 38.1376 23.7743C39.2826 23.3851 39.7405 23.2706 40.1985 23.3393H40.2214C40.7708 23.3393 41.229 23.4996 42.0991 23.843C43.0609 24.2322 43.3586 24.3469 43.8392 24.3924C44.5036 24.4384 45.0759 24.2094 45.6024 23.637C46.4954 22.6522 46.4497 21.599 45.6483 20.6144V20.6144ZM45.2589 23.3163C44.824 23.7972 44.3889 23.9577 43.8622 23.9347C43.45 23.9117 43.1753 23.7972 42.2593 23.4308C41.3435 23.0416 40.8398 22.9044 40.2444 22.8814C39.672 22.8125 39.1911 22.9272 37.9774 23.3393C37.8629 23.3851 37.7714 23.4081 37.7027 23.4308C36.0311 24.0032 35.2297 23.9575 34.6801 22.9499C33.8557 21.4617 35.1152 19.4466 36.8326 19.2864L42.6257 19.0572C43.725 19.5154 44.7095 20.1792 45.2819 20.8893C45.9688 21.7134 45.9918 22.5378 45.2589 23.3163V23.3163Z" fill="#231F20"/>
<path d="M43.1296 18.0952C42.4198 15.4848 36.4662 15.8742 36.6035 18.9883C36.9012 21.3008 43.8165 20.6825 43.1296 18.0952Z" fill="black"/>
</svg>
