<svg version="1.2" xmlns="http://www.w3.org/2000/svg" xmlns:xlink="http://www.w3.org/1999/xlink" overflow="visible"
  preserveAspectRatio="none" viewBox="0 0 79.99998000000001 88.9999175" width="79.99998000000001" height="88.9999175">
  <g transform="translate(0, 0)">
    <g transform="translate(-3.9968028886505635e-15, -0.0000025000000057340266) rotate(0)">
      <path style="stroke-width: 0; stroke-linecap: butt; stroke-linejoin: miter; fill: rgb(83, 158, 67);"
        d="M39.99999,88.99992c-1.24224,0 -2.40166,-0.32706 -3.47826,-0.8994l-11.01449,-6.45934c-1.65631,-0.8994 -0.82816,-1.22646 -0.33126,-1.38999c2.23602,-0.73587 2.6501,-0.8994 4.96894,-2.20762c0.24845,-0.16353 0.57971,-0.08176 0.82816,0.08176l8.4472,4.98759c0.33126,0.16353 0.74534,0.16353 0.99379,0l33.04347,-18.88744c0.33126,-0.16353 0.49689,-0.49058 0.49689,-0.8994v-37.69312c0,-0.40882 -0.16563,-0.73587 -0.49689,-0.8994l-33.04347,-18.80568c-0.33126,-0.16353 -0.74534,-0.16353 -0.99379,0l-33.04347,18.80568c-0.33126,0.16353 -0.49689,0.57235 -0.49689,0.8994v37.69312c0,0.32706 0.16563,0.73587 0.49689,0.8994l9.02691,5.15112c4.88613,2.45291 7.95031,-0.40882 7.95031,-3.27055v-37.20254c0,-0.49058 0.41408,-0.98117 0.99379,-0.98117h4.2236c0.49689,0 0.99379,0.40882 0.99379,0.98117v37.20254c0,6.45934 -3.56108,10.22048 -9.77225,10.22048c-1.90476,0 -3.39544,0 -7.61905,-2.0441l-8.69565,-4.90583c-2.15321,-1.22646 -3.47826,-3.51584 -3.47826,-5.96876v-37.69312c0,-2.45291 1.32505,-4.7423 3.47826,-5.96876l33.04347,-18.88744c2.07039,-1.14469 4.88613,-1.14469 6.95652,0l33.04347,18.88744c2.15321,1.22646 3.47826,3.51584 3.47826,5.96876v37.69312c0,2.45292 -1.32505,4.7423 -3.47826,5.96876l-33.04347,18.88744c-1.07661,0.49058 -2.31884,0.73587 -3.47826,0.73587zM50.18633,63.08079c-14.49275,0 -17.47412,-6.54111 -17.47412,-12.10105c0,-0.49058 0.41408,-0.98117 0.99379,-0.98117h4.30642c0.49689,0 0.91097,0.32705 0.91097,0.81764c0.66253,4.33348 2.56729,6.45934 11.34575,6.45934c6.95652,0 9.93789,-1.55351 9.93789,-5.23288c0,-2.12586 -0.82816,-3.67937 -11.67702,-4.7423c-9.02691,-0.8994 -14.65838,-2.86173 -14.65838,-9.97519c0,-6.62287 5.63147,-10.54753 15.07246,-10.54753c10.60041,0 15.8178,3.59761 16.48033,11.44694c0,0.24529 -0.08282,0.49058 -0.24845,0.73587c-0.16563,0.16353 -0.41408,0.32705 -0.66253,0.32705h-4.30642c-0.41408,0 -0.82816,-0.32705 -0.91097,-0.73587c-0.99379,-4.49701 -3.56108,-5.96876 -10.35196,-5.96876c-7.61905,0 -8.53002,2.61644 -8.53002,4.57877c0,2.37115 1.0766,3.10703 11.34575,4.41525c10.18633,1.30822 14.98965,3.18879 14.98965,10.22048c-0.08282,7.19522 -6.04555,11.28341 -16.56314,11.28341z"
        vector-effect="non-scaling-stroke" />
    </g>
    <defs>
      <path id="path-1644280655436517"
        d="M39.99999,88.99992c-1.24224,0 -2.40166,-0.32706 -3.47826,-0.8994l-11.01449,-6.45934c-1.65631,-0.8994 -0.82816,-1.22646 -0.33126,-1.38999c2.23602,-0.73587 2.6501,-0.8994 4.96894,-2.20762c0.24845,-0.16353 0.57971,-0.08176 0.82816,0.08176l8.4472,4.98759c0.33126,0.16353 0.74534,0.16353 0.99379,0l33.04347,-18.88744c0.33126,-0.16353 0.49689,-0.49058 0.49689,-0.8994v-37.69312c0,-0.40882 -0.16563,-0.73587 -0.49689,-0.8994l-33.04347,-18.80568c-0.33126,-0.16353 -0.74534,-0.16353 -0.99379,0l-33.04347,18.80568c-0.33126,0.16353 -0.49689,0.57235 -0.49689,0.8994v37.69312c0,0.32706 0.16563,0.73587 0.49689,0.8994l9.02691,5.15112c4.88613,2.45291 7.95031,-0.40882 7.95031,-3.27055v-37.20254c0,-0.49058 0.41408,-0.98117 0.99379,-0.98117h4.2236c0.49689,0 0.99379,0.40882 0.99379,0.98117v37.20254c0,6.45934 -3.56108,10.22048 -9.77225,10.22048c-1.90476,0 -3.39544,0 -7.61905,-2.0441l-8.69565,-4.90583c-2.15321,-1.22646 -3.47826,-3.51584 -3.47826,-5.96876v-37.69312c0,-2.45291 1.32505,-4.7423 3.47826,-5.96876l33.04347,-18.88744c2.07039,-1.14469 4.88613,-1.14469 6.95652,0l33.04347,18.88744c2.15321,1.22646 3.47826,3.51584 3.47826,5.96876v37.69312c0,2.45292 -1.32505,4.7423 -3.47826,5.96876l-33.04347,18.88744c-1.07661,0.49058 -2.31884,0.73587 -3.47826,0.73587zM50.18633,63.08079c-14.49275,0 -17.47412,-6.54111 -17.47412,-12.10105c0,-0.49058 0.41408,-0.98117 0.99379,-0.98117h4.30642c0.49689,0 0.91097,0.32705 0.91097,0.81764c0.66253,4.33348 2.56729,6.45934 11.34575,6.45934c6.95652,0 9.93789,-1.55351 9.93789,-5.23288c0,-2.12586 -0.82816,-3.67937 -11.67702,-4.7423c-9.02691,-0.8994 -14.65838,-2.86173 -14.65838,-9.97519c0,-6.62287 5.63147,-10.54753 15.07246,-10.54753c10.60041,0 15.8178,3.59761 16.48033,11.44694c0,0.24529 -0.08282,0.49058 -0.24845,0.73587c-0.16563,0.16353 -0.41408,0.32705 -0.66253,0.32705h-4.30642c-0.41408,0 -0.82816,-0.32705 -0.91097,-0.73587c-0.99379,-4.49701 -3.56108,-5.96876 -10.35196,-5.96876c-7.61905,0 -8.53002,2.61644 -8.53002,4.57877c0,2.37115 1.0766,3.10703 11.34575,4.41525c10.18633,1.30822 14.98965,3.18879 14.98965,10.22048c-0.08282,7.19522 -6.04555,11.28341 -16.56314,11.28341z"
        vector-effect="non-scaling-stroke" />
    </defs>
  </g>
</svg>
