<svg width="80" height="80" viewBox="0 0 80 80" fill="none" xmlns="http://www.w3.org/2000/svg">
<g clip-path="url(#clip0_443_324)">
<path d="M39.9551 80C38.8385 80 37.7963 79.706 36.8285 79.1916L26.9279 73.3854C25.4391 72.577 26.1835 72.283 26.6301 72.136C28.64 71.4745 29.0122 71.3275 31.0966 70.1516C31.3199 70.0046 31.6177 70.0781 31.841 70.2251L39.434 74.7083C39.7318 74.8553 40.104 74.8553 40.3273 74.7083L70.0293 57.7308C70.3271 57.5838 70.476 57.2898 70.476 56.9224V23.0409C70.476 22.6734 70.3271 22.3794 70.0293 22.2324L40.3273 5.32843C40.0295 5.18144 39.6573 5.18144 39.434 5.32843L9.73197 22.2324C9.43421 22.3794 9.28533 22.7469 9.28533 23.0409V56.9224C9.28533 57.2164 9.43421 57.5838 9.73197 57.7308L17.8461 62.3611C22.2381 64.5659 24.9924 61.9936 24.9924 59.4212V25.9807C24.9924 25.5397 25.3646 25.0988 25.8857 25.0988H29.6822C30.1288 25.0988 30.5755 25.4662 30.5755 25.9807V59.4212C30.5755 65.2274 27.3745 68.6082 21.7914 68.6082C20.0793 68.6082 18.7394 68.6082 14.9429 66.7708L7.12653 62.3611C5.19106 61.2586 4 59.2007 4 56.9959V23.1144C4 20.9095 5.19106 18.8516 7.12653 17.7492L36.8285 0.771702C38.6896 -0.257234 41.2206 -0.257234 43.0816 0.771702L72.7836 17.7492C74.7191 18.8516 75.9102 20.9095 75.9102 23.1144V56.9959C75.9102 59.2007 74.7191 61.2586 72.7836 62.3611L43.0816 79.3385C42.1139 79.7795 40.9973 80 39.9551 80V80ZM49.1113 56.7019C36.0841 56.7019 33.4043 50.8222 33.4043 45.8245C33.4043 45.3836 33.7765 44.9426 34.2976 44.9426H38.1685C38.6151 44.9426 38.9873 45.2366 38.9873 45.6775C39.5829 49.5728 41.295 51.4837 49.1858 51.4837C55.4388 51.4837 58.1187 50.0873 58.1187 46.78C58.1187 44.8691 57.3743 43.4727 47.6225 42.5172C39.5084 41.7088 34.4464 39.9449 34.4464 33.5508C34.4464 27.5976 39.5084 24.0698 47.9947 24.0698C57.5232 24.0698 62.213 27.3036 62.8085 34.3592C62.8085 34.5797 62.7341 34.8002 62.5852 35.0207C62.4363 35.1677 62.213 35.3146 61.9897 35.3146H58.1187C57.7465 35.3146 57.3743 35.0207 57.2999 34.6532C56.4066 30.6109 54.0989 29.288 47.9947 29.288C41.1461 29.288 40.3273 31.6399 40.3273 33.4038C40.3273 35.5351 41.295 36.1966 50.5257 37.3725C59.682 38.5485 63.9996 40.2389 63.9996 46.5595C63.9251 53.0271 58.5654 56.7019 49.1113 56.7019V56.7019Z" fill="#539E43"/>
</g>
<defs>
<clipPath id="clip0_443_324">
<rect width="71.9102" height="80" fill="white" transform="translate(4)"/>
</clipPath>
</defs>
</svg>
