<svg width="80" height="80" viewBox="0 0 80 80" fill="none" xmlns="http://www.w3.org/2000/svg">
  <g clip-path="url(#clip0_443_413)">
    <path d="M40 80C62.0914 80 80 62.0914 80 40C80 17.9086 62.0914 0 40 0C17.9086 0 0 17.9086 0 40C0 62.0914 17.9086 80 40 80Z" fill="#D30001" />
    <path fill-rule="evenodd" clip-rule="evenodd" d="M62.8596 43.7675V46.5983H67.9738C69.0217 46.5983 70.8202 45.8319 70.8828 43.6893V42.5945C70.8828 40.7647 69.3814 39.6856 67.9738 39.6856H65.4246V38.3719H70.4762V35.5255H65.6279C64.3767 35.5255 62.7032 36.5577 62.7032 38.4813V39.4666C62.7032 41.3903 64.3611 42.3756 65.6279 42.3756C69.1468 42.3912 64.7834 42.3756 68.0364 42.3756V43.7519L62.8596 43.7675ZM35.4592 43.0794C35.4592 43.0794 38.1961 42.8448 38.1961 39.3102C38.1961 35.7757 34.8805 35.4473 34.8805 35.4473H28.9062V46.5983H31.909V43.9083L34.5053 46.5983H38.9469L35.4592 43.0794ZM34.3019 40.796H31.909V38.2468H34.3175C34.3175 38.2468 34.99 38.497 34.99 39.5136C34.99 40.5301 34.3019 40.796 34.3019 40.796ZM45.6093 35.5255H42.5595C40.3856 35.5255 39.6506 37.4961 39.6506 38.4344V46.5983H42.7003V44.6433H45.5623V46.5983H48.5183V38.4344C48.5183 36.0572 46.36 35.5255 45.6093 35.5255ZM45.5623 41.4841H42.6846V38.7785C42.6846 38.7785 42.6847 38.1686 43.6387 38.1686H44.6865C45.531 38.1686 45.5468 38.7785 45.5468 38.7785V41.4841H45.5623Z" fill="white" />
    <path d="M53.085 35.5254H49.9102V46.5982H53.085V35.5254Z" fill="white" />
    <path fill-rule="evenodd" clip-rule="evenodd" d="M57.5418 43.7362V35.5254H54.3826V43.7362V46.5982H57.5418H61.8113V43.7362H57.5418Z" fill="white" />
    <path fill-rule="evenodd" clip-rule="evenodd" d="M10.0605 46.5981H22.4158C22.4158 46.5981 20.0542 35.8225 27.874 31.4591C29.5787 30.6302 35.0056 27.5335 43.8888 34.1021C44.1703 33.8676 44.4362 33.68 44.4362 33.68C44.4362 33.68 36.3037 25.563 27.2484 26.4701C22.6973 26.8767 17.0983 31.0212 13.814 36.495C10.5297 41.9688 10.0605 46.5981 10.0605 46.5981Z" fill="white" />
    <path fill-rule="evenodd" clip-rule="evenodd" d="M10.0605 46.5981H22.4158C22.4158 46.5981 20.0542 35.8225 27.874 31.4591C29.5787 30.6302 35.0056 27.5335 43.8888 34.1021C44.1703 33.8676 44.4362 33.68 44.4362 33.68C44.4362 33.68 36.3037 25.563 27.2484 26.4701C22.6973 26.8767 17.0983 31.0212 13.814 36.495C10.5297 41.9688 10.0605 46.5981 10.0605 46.5981Z" fill="white" />
    <path fill-rule="evenodd" clip-rule="evenodd" d="M10.0605 46.5985H22.4158C22.4158 46.5985 20.0542 35.8228 27.874 31.4594C29.5787 30.6305 35.0056 27.5339 43.8888 34.1025C44.1703 33.8679 44.4362 33.6802 44.4362 33.6802C44.4362 33.6802 36.3037 25.5633 27.2484 26.4704C22.6816 26.877 17.0827 31.0215 13.7984 36.4953C10.5141 41.9692 10.0605 46.5985 10.0605 46.5985ZM35.8032 27.3462L35.8658 26.2984C35.725 26.2202 35.334 26.0325 34.3487 25.751L34.2862 26.7832C34.8023 26.9552 35.3027 27.1429 35.8032 27.3462Z" fill="white" />
    <path fill-rule="evenodd" clip-rule="evenodd" d="M34.3165 30.6617L34.2539 31.647C34.77 31.6626 35.2861 31.7252 35.8023 31.8346L35.8648 30.865C35.3331 30.7555 34.817 30.693 34.3165 30.6617ZM28.5299 25.7821H28.6863L28.3735 24.8281C27.8887 24.8281 27.3882 24.8594 26.8721 24.922L27.1692 25.8447C27.6228 25.7978 28.0763 25.7821 28.5299 25.7821ZM29.2806 31.5375L29.6403 32.6166C30.0938 32.3977 30.5474 32.21 31.0009 32.0692L30.6568 31.037C30.1251 31.1934 29.6716 31.3655 29.2806 31.5375ZM22.1802 27.4243L21.4765 26.3452C21.0855 26.5485 20.6788 26.7674 20.2566 27.0177L20.976 28.1124C21.3826 27.8622 21.7736 27.6276 22.1802 27.4243ZM25.3863 34.4621L26.137 35.5881C26.4029 35.1971 26.7157 34.8374 27.0598 34.4777L26.356 33.4142C25.9963 33.7427 25.6678 34.1024 25.3863 34.4621ZM23.1186 39.498L24.3854 40.4989C24.448 39.889 24.5574 39.2791 24.7138 38.6691L23.5878 37.7777C23.3845 38.3563 23.2437 38.935 23.1186 39.498ZM16.2685 32.0692L15.1581 31.0996C14.7515 31.4906 14.3605 31.8816 14.0008 32.2725L15.205 33.3048C15.5334 32.8825 15.8931 32.4602 16.2685 32.0692ZM11.5454 39.0601L9.74682 38.4032C9.44967 39.0757 9.12124 39.8577 8.96484 40.28L10.7634 40.9368C10.9667 40.4051 11.2951 39.6388 11.5454 39.0601ZM22.884 43.4704C22.9153 44.2993 22.9935 44.9718 23.0717 45.441L24.9484 46.1135C24.8077 45.5036 24.6669 44.8154 24.5731 44.0804L22.884 43.4704Z" fill="white" />
  </g>

</svg>
