<svg width="60" height="60" viewBox="0 0 60 60" fill="none" xmlns="http://www.w3.org/2000/svg">
  <path d="M35.52 25.32C35.52 25.96 35.4 26.58 35.16 27.18C34.92 27.76 34.6 28.33 34.2 28.89C33.8 29.45 33.35 29.99 32.85 30.51C32.35 31.03 31.84 31.53 31.32 32.01C31.06 32.25 30.76 32.54 30.42 32.88C30.08 33.2 29.76 33.54 29.46 33.9C29.16 34.24 28.9 34.59 28.68 34.95C28.48 35.31 28.38 35.64 28.38 35.94H36.36V39H24.24C24.18 38.8 24.15 38.55 24.15 38.25C24.17 37.95 24.18 37.74 24.18 37.62C24.18 36.62 24.36 35.7 24.72 34.86C25.1 34.02 25.57 33.25 26.13 32.55C26.71 31.83 27.32 31.17 27.96 30.57C28.62 29.95 29.23 29.36 29.79 28.8C30.37 28.24 30.84 27.7 31.2 27.18C31.58 26.66 31.77 26.13 31.77 25.59C31.77 24.83 31.54 24.25 31.08 23.85C30.62 23.43 30.04 23.22 29.34 23.22C28.76 23.22 28.15 23.36 27.51 23.64C26.87 23.92 26.24 24.39 25.62 25.05L23.79 22.47C24.59 21.63 25.51 21.01 26.55 20.61C27.61 20.21 28.66 20.01 29.7 20.01C30.46 20.01 31.19 20.12 31.89 20.34C32.59 20.56 33.21 20.89 33.75 21.33C34.29 21.77 34.72 22.33 35.04 23.01C35.36 23.67 35.52 24.44 35.52 25.32Z" fill="white" />
  <circle cx="30" cy="30" r="27.5" stroke="white" stroke-width="5" />
</svg>
