<svg width="60" height="60" viewBox="0 0 60 60" fill="none" xmlns="http://www.w3.org/2000/svg">
  <path d="M28.89 39.39C28.43 39.39 27.94 39.35 27.42 39.27C26.92 39.21 26.43 39.13 25.95 39.03C25.49 38.93 25.06 38.82 24.66 38.7C24.26 38.58 23.95 38.47 23.73 38.37L24.45 35.28C24.91 35.48 25.5 35.69 26.22 35.91C26.96 36.13 27.84 36.24 28.86 36.24C30.12 36.24 31 35.97 31.5 35.43C32.02 34.89 32.28 34.22 32.28 33.42C32.28 32.44 31.89 31.76 31.11 31.38C30.33 30.98 29.34 30.78 28.14 30.78H27V27.72H28.38C28.76 27.72 29.14 27.68 29.52 27.6C29.9 27.52 30.24 27.39 30.54 27.21C30.84 27.03 31.08 26.79 31.26 26.49C31.46 26.19 31.56 25.81 31.56 25.35C31.56 24.67 31.35 24.14 30.93 23.76C30.53 23.36 29.97 23.16 29.25 23.16C28.55 23.16 27.85 23.28 27.15 23.52C26.47 23.74 25.88 24.02 25.38 24.36L24.06 21.66C24.6 21.3 25.31 20.94 26.19 20.58C27.09 20.2 28.1 20.01 29.22 20.01C30.26 20.01 31.16 20.14 31.92 20.4C32.7 20.66 33.34 21.03 33.84 21.51C34.34 21.97 34.71 22.52 34.95 23.16C35.19 23.8 35.31 24.49 35.31 25.23C35.31 25.97 35.1 26.68 34.68 27.36C34.26 28.04 33.7 28.56 33 28.92C33.96 29.32 34.7 29.91 35.22 30.69C35.76 31.47 36.03 32.4 36.03 33.48C36.03 34.34 35.89 35.13 35.61 35.85C35.33 36.57 34.9 37.2 34.32 37.74C33.74 38.26 33 38.67 32.1 38.97C31.2 39.25 30.13 39.39 28.89 39.39Z" fill="white" />
  <circle cx="30" cy="30" r="27.5" stroke="white" stroke-width="5" />
</svg>
