<svg width="60" height="60" viewBox="0 0 60 60" fill="none" xmlns="http://www.w3.org/2000/svg">
  <path d="M31.05 25.05C30.69 25.51 30.32 26 29.94 26.52C29.56 27.04 29.18 27.59 28.8 28.17C28.44 28.73 28.09 29.3 27.75 29.88C27.41 30.46 27.11 31.03 26.85 31.59H31.05V25.05ZM34.74 20.43V31.59H36.75V34.62H34.74V39H31.05V34.62H23.31V31.92C23.69 31.14 24.18 30.26 24.78 29.28C25.38 28.28 26.04 27.26 26.76 26.22C27.48 25.18 28.24 24.16 29.04 23.16C29.84 22.14 30.64 21.23 31.44 20.43H34.74Z" fill="white" />
  <circle cx="30" cy="30" r="27.5" stroke="white" stroke-width="5" />
</svg>
