<svg width="60" height="60" viewBox="0 0 60 60" fill="none" xmlns="http://www.w3.org/2000/svg">
  <path d="M32.13 33.54C32.13 33.02 32.04 32.55 31.86 32.13C31.7 31.69 31.36 31.32 30.84 31.02C30.34 30.7 29.62 30.46 28.68 30.3C27.74 30.12 26.51 30.03 24.99 30.03C25.19 28.35 25.35 26.71 25.47 25.11C25.59 23.49 25.68 21.93 25.74 20.43H35.22V23.49H28.83C28.79 24.13 28.74 24.8 28.68 25.5C28.62 26.2 28.57 26.77 28.53 27.21C31.01 27.37 32.86 27.97 34.08 29.01C35.3 30.05 35.91 31.51 35.91 33.39C35.91 34.25 35.76 35.05 35.46 35.79C35.16 36.51 34.7 37.14 34.08 37.68C33.46 38.22 32.69 38.64 31.77 38.94C30.85 39.24 29.78 39.39 28.56 39.39C28.08 39.39 27.59 39.36 27.09 39.3C26.59 39.24 26.11 39.16 25.65 39.06C25.19 38.98 24.77 38.88 24.39 38.76C24.03 38.64 23.75 38.53 23.55 38.43L24.3 35.37C24.74 35.59 25.3 35.79 25.98 35.97C26.66 36.15 27.51 36.24 28.53 36.24C29.25 36.24 29.84 36.16 30.3 36C30.78 35.84 31.15 35.64 31.41 35.4C31.69 35.14 31.88 34.85 31.98 34.53C32.08 34.21 32.13 33.88 32.13 33.54Z" fill="white" />
  <circle cx="30" cy="30" r="27.5" stroke="white" stroke-width="5" />
</svg>
