<svg width="60" height="60" viewBox="0 0 60 60" fill="none" xmlns="http://www.w3.org/2000/svg">
  <path d="M29.73 30.18C29.35 30.18 28.96 30.22 28.56 30.3C28.16 30.38 27.83 30.49 27.57 30.63C27.55 30.81 27.53 30.99 27.51 31.17C27.51 31.35 27.51 31.54 27.51 31.74C27.51 32.32 27.55 32.88 27.63 33.42C27.71 33.94 27.85 34.41 28.05 34.83C28.25 35.25 28.52 35.59 28.86 35.85C29.22 36.09 29.66 36.21 30.18 36.21C30.6 36.21 30.96 36.11 31.26 35.91C31.56 35.71 31.8 35.46 31.98 35.16C32.18 34.86 32.32 34.53 32.4 34.17C32.5 33.81 32.55 33.46 32.55 33.12C32.55 32.18 32.34 31.46 31.92 30.96C31.5 30.44 30.77 30.18 29.73 30.18ZM30.21 27.12C31.29 27.12 32.2 27.28 32.94 27.6C33.7 27.92 34.32 28.35 34.8 28.89C35.28 29.43 35.62 30.06 35.82 30.78C36.04 31.5 36.15 32.26 36.15 33.06C36.15 33.78 36.03 34.51 35.79 35.25C35.57 35.99 35.22 36.67 34.74 37.29C34.26 37.91 33.65 38.42 32.91 38.82C32.17 39.2 31.29 39.39 30.27 39.39C28.19 39.39 26.6 38.75 25.5 37.47C24.42 36.17 23.88 34.15 23.88 31.41C23.88 29.61 24.14 28.02 24.66 26.64C25.2 25.26 25.96 24.1 26.94 23.16C27.92 22.22 29.1 21.51 30.48 21.03C31.86 20.55 33.39 20.31 35.07 20.31L35.28 23.46C34.48 23.48 33.7 23.56 32.94 23.7C32.18 23.84 31.48 24.08 30.84 24.42C30.2 24.74 29.64 25.16 29.16 25.68C28.7 26.2 28.36 26.85 28.14 27.63C28.52 27.47 28.89 27.35 29.25 27.27C29.61 27.17 29.93 27.12 30.21 27.12Z" fill="white" />
  <circle cx="30" cy="30" r="27.5" stroke="white" stroke-width="5" />
</svg>
