<svg width="102" height="102" viewBox="0 0 102 102" fill="none" xmlns="http://www.w3.org/2000/svg">
  <g clip-path="url(#clip0_525_2)">
    <path d="M38.6894 33.4136C38.6894 36.3274 36.3274 38.6894 33.4136 38.6894C30.4997 38.6894 28.1377 36.3274 28.1377 33.4136C28.1377 30.4997 30.4997 28.1377 33.4136 28.1377C36.3274 28.1377 38.6894 30.4997 38.6894 33.4136Z" fill="#4A92FF" />
    <path d="M73.8623 33.4136C73.8623 36.3274 71.5003 38.6894 68.5864 38.6894C65.6725 38.6894 63.3105 36.3274 63.3105 33.4136C63.3105 30.4997 65.6725 28.1377 68.5864 28.1377C71.5003 28.1377 73.8623 30.4997 73.8623 33.4136Z" fill="#4A92FF" />
    <path d="M56.2758 51C56.2758 53.9139 53.9139 56.2758 51 56.2758C48.0861 56.2758 45.7241 53.9139 45.7241 51C45.7241 48.0861 48.0861 45.7241 51 45.7241C53.9139 45.7241 56.2758 48.0861 56.2758 51Z" fill="#4A92FF" />
    <path d="M38.6894 68.5864C38.6894 71.5003 36.3274 73.8623 33.4136 73.8623C30.4997 73.8623 28.1377 71.5003 28.1377 68.5864C28.1377 65.6725 30.4997 63.3105 33.4136 63.3105C36.3274 63.3105 38.6894 65.6725 38.6894 68.5864Z" fill="#4A92FF" />
    <path d="M73.8623 68.5864C73.8623 71.5003 71.5003 73.8623 68.5864 73.8623C65.6725 73.8623 63.3105 71.5003 63.3105 68.5864C63.3105 65.6725 65.6725 63.3105 68.5864 63.3105C71.5003 63.3105 73.8623 65.6725 73.8623 68.5864Z" fill="#4A92FF" />
    <path d="M91.4482 51C91.4482 53.9139 89.0862 56.2758 86.1723 56.2758C83.2585 56.2758 80.8965 53.9139 80.8965 51C80.8965 48.0861 83.2585 45.7241 86.1723 45.7241C89.0862 45.7241 91.4482 48.0861 91.4482 51Z" fill="#4A92FF" />
    <path d="M56.2758 15.8276C56.2758 18.7415 53.9139 21.1035 51 21.1035C48.0861 21.1035 45.7241 18.7415 45.7241 15.8276C45.7241 12.9137 48.0861 10.5518 51 10.5518C53.9139 10.5518 56.2758 12.9137 56.2758 15.8276Z" fill="#4A92FF" />
    <path d="M56.2758 86.1723C56.2758 89.0862 53.9139 91.4482 51 91.4482C48.0861 91.4482 45.7241 89.0862 45.7241 86.1723C45.7241 83.2585 48.0861 80.8965 51 80.8965C53.9139 80.8965 56.2758 83.2585 56.2758 86.1723Z" fill="#4A92FF" />
    <path d="M21.1035 51C21.1035 53.9139 18.7415 56.2758 15.8276 56.2758C12.9137 56.2758 10.5518 53.9139 10.5518 51C10.5518 48.0861 12.9137 45.7241 15.8276 45.7241C18.7415 45.7241 21.1035 48.0861 21.1035 51Z" fill="#4A92FF" />
    <path d="M102 12.3103C102 9.04561 100.703 5.91409 98.3946 3.60546C96.0858 1.29727 92.9545 0 89.6897 0H72.1035V10.5517H89.6897C90.1563 10.5517 90.6034 10.7372 90.9331 11.0669C91.2629 11.3967 91.4483 11.8438 91.4483 12.3103V29.8966H102V12.3103Z" fill="#4A92FF" />
    <path d="M72.1035 102H89.6897C92.9545 102 96.086 100.703 98.3946 98.3946C100.703 96.0858 102 92.9545 102 89.6897V72.1035H91.4483V89.6897C91.4483 90.1563 91.2629 90.6034 90.9331 90.9331C90.6034 91.2629 90.1563 91.4483 89.6897 91.4483H72.1035V102Z" fill="#4A92FF" />
    <path d="M0 89.6897C0 92.9545 1.29722 96.086 3.60546 98.3946C5.91424 100.703 9.04561 102 12.3103 102H29.8966V91.4483H12.3103C11.3389 91.4483 10.5517 90.6612 10.5517 89.6897V72.1035H0V89.6897Z" fill="#4A92FF" />
    <path d="M0 12.3103V29.8966H10.5517V12.3103C10.5517 11.3389 11.3389 10.5517 12.3103 10.5517H29.8966V0H12.3103C9.04561 0 5.91409 1.29722 3.60546 3.60546C1.29727 5.91424 0 9.04561 0 12.3103V12.3103Z" fill="#4A92FF" />
  </g>
  <defs>
    <clipPath id="clip0_525_2">
      <rect width="102" height="102" fill="white" />
    </clipPath>
  </defs>
</svg>
