<svg width="120" height="120" viewBox="0 0 120 120" fill="none" xmlns="http://www.w3.org/2000/svg">
  <g clip-path="url(#clip0_443_282)">
    <path d="M43.1457 79H0.854367C0.382757 78.9994 0.000584878 78.6173 0 78.1457V35.8544C0 35.3825 0.382516 35 0.854367 35H43.1457C43.6175 35 44 35.3825 44 35.8544V78.1457C44 78.6175 43.6175 79 43.1457 79ZM25.2039 69.3196V70.7553H28.1777C28.6186 70.7611 29.0569 70.6887 29.4725 70.5418C29.8515 70.403 30.1967 70.1854 30.4854 69.9033C30.7827 69.608 31.0066 69.2471 31.1392 68.8497C31.2921 68.3788 31.3657 67.8858 31.357 67.3908V65.3809C31.3449 64.8561 31.4463 64.3349 31.6544 63.8529C31.8327 63.4519 32.0829 63.0868 32.3927 62.776C32.6632 62.5051 32.9836 62.2892 33.3362 62.1403C33.6178 62.0157 33.9206 61.9461 34.2284 61.9352V60.4995C33.9234 60.4908 33.622 60.4319 33.3362 60.3252C32.9862 60.1994 32.6653 60.0041 32.3927 59.7511C32.0805 59.4582 31.8294 59.1061 31.6544 58.7154C31.442 58.2167 31.3406 57.6778 31.357 57.136V55.0444C31.3623 54.5825 31.2827 54.1236 31.1221 53.6906C30.9741 53.2961 30.7512 52.934 30.4658 52.6241C30.1826 52.3218 29.8402 52.0809 29.4599 51.9165C29.0552 51.743 28.6187 51.6557 28.1784 51.6602H25.2039V53.096H27.4599C28.3172 53.096 28.921 53.3029 29.254 53.7113C29.587 54.1197 29.7566 54.7338 29.7566 55.5367V57.5261C29.7477 58.0417 29.8527 58.553 30.0642 59.0234C30.2473 59.4278 30.4969 59.7986 30.8026 60.1206C31.0627 60.3929 31.3595 60.6277 31.6845 60.818C31.9112 60.9598 32.1612 61.0605 32.4229 61.1153V61.2383C32.1661 61.2995 31.9228 61.4073 31.705 61.5564C31.3759 61.7654 31.0789 62.021 30.8231 62.3153C30.5223 62.6581 30.2707 63.0413 30.0755 63.4535C29.8602 63.9084 29.7514 64.4064 29.7575 64.9098V66.8786C29.7575 67.7088 29.578 68.3298 29.2235 68.7247C28.8689 69.1196 28.2691 69.3196 27.4389 69.3196H25.2039ZM15.8221 51.6602C15.3817 51.6557 14.9452 51.743 14.5405 51.9165C14.1606 52.081 13.8185 52.3219 13.5356 52.6241C13.2501 52.934 13.0272 53.2961 12.8792 53.6906C12.7186 54.1236 12.639 54.5825 12.6443 55.0444V57.1365C12.6607 57.6782 12.5593 58.2171 12.3469 58.7158C12.1718 59.1065 11.9208 59.4586 11.6085 59.7515C11.336 60.0046 11.0151 60.1999 10.6651 60.3256C10.3792 60.4323 10.0777 60.4912 9.77272 60.4999V61.9357C10.0805 61.9465 10.3835 62.0161 10.6651 62.1408C11.0177 62.2897 11.3381 62.5055 11.6085 62.7764C11.9184 63.0872 12.1686 63.4523 12.3469 63.8533C12.5549 64.3353 12.6564 64.8565 12.6443 65.3814V67.3912C12.6356 67.8862 12.7092 68.3793 12.8621 68.8501C12.9947 69.2476 13.2186 69.6085 13.5159 69.9038C13.8045 70.1858 14.1496 70.4034 14.5285 70.5422C14.9442 70.6892 15.3825 70.7615 15.8234 70.7558H18.7961V69.32H16.5605C15.7302 69.32 15.1294 69.1199 14.7761 68.7251C14.4228 68.3304 14.2421 67.7093 14.2421 66.8791V64.9102C14.2482 64.4069 14.1394 63.9089 13.9241 63.4539C13.7288 63.0417 13.4772 62.6586 13.1765 62.3157C12.9207 62.0215 12.6237 61.7658 12.2946 61.5568C12.0767 61.4077 11.8333 61.2999 11.5765 61.2388V61.1157C11.8383 61.0609 12.0884 60.9603 12.3151 60.8184C12.64 60.6281 12.9368 60.3934 13.1968 60.121C13.5025 59.7991 13.7521 59.4282 13.9352 59.0238C14.1468 58.5534 14.2518 58.0422 14.243 57.5265V55.5367C14.243 54.7336 14.4121 54.1195 14.7456 53.7113C15.079 53.3031 15.6828 53.096 16.5398 53.096H18.7961V51.6602H15.8221ZM2.13592 37.1359V43.9708H41.8641V37.1359H2.13592Z" fill="#4A92FF" />
    <path d="M97.2727 45L88.545 73.7641L92.7269 75L101.455 46.2359L97.2727 45ZM83.3181 47.6517L71.682 58.4383L70 60.0113L71.682 61.5843L83.3181 72.371L86.3181 69.225L76.3863 60.0118L86.3181 50.7986L83.3181 47.6517ZM106.682 47.6517L103.682 50.7976L113.614 60.0108L103.682 69.2241L106.682 72.37L118.318 61.5834L120 60.0104L118.318 58.4374L106.682 47.6517Z" fill="#4A92FF" />
    <rect opacity="0.6" x="58" y="-1" width="4" height="122" fill="#4A92FF" />
  </g>

</svg>
