<svg width="89" height="102" viewBox="0 0 89 102" fill="none" xmlns="http://www.w3.org/2000/svg">
  <g clip-path="url(#clip0_525_17)">
    <path d="M54.5182 13.9979V8.46102H60.6343L60.6346 0H28.499V8.46102H34.6143V13.9979C14.7956 18.5208 0 36.2441 0 57.4379C0 82.0525 19.9522 102 44.5667 102C69.1794 102 89.1343 82.0525 89.1343 57.4379C89.1343 36.2441 74.3378 18.5211 54.5182 13.9979H54.5182ZM44.5649 96.0821C23.6687 96.0821 6.72832 79.1445 6.72832 58.2474C6.72832 37.3476 23.6696 20.4072 44.5649 20.4072C65.4638 20.4072 82.4042 37.3485 82.4042 58.2474C82.4042 79.1445 65.4629 96.0821 44.5649 96.0821Z" fill="#4A92FF" />
    <path d="M44.5 27C49.8569 27 55.1253 28.3661 59.8072 30.9693C64.4891 33.5724 68.4298 37.3266 71.2567 41.8768L44.5 58.5L44.5 27Z" fill="#4A92FF" />
  </g>
  <defs>
    <clipPath id="clip0_525_17">
      <rect width="89" height="102" fill="white" />
    </clipPath>
  </defs>
</svg>
