<svg width="100%" height="100%" viewBox="0 0 120 76" fill="none" xmlns="http://www.w3.org/2000/svg">
  <path d="M17.3526 8.69718C17.3526 3.88039 13.4815 0 8.67631 0C3.87108 0 0 3.88039 0 8.69718C0 13.514 3.87108 17.3944 8.67631 17.3944C13.3482 17.3944 17.3526 13.514 17.3526 8.69718ZM17.3526 67.3028C17.3526 62.486 13.4815 58.6056 8.67631 58.6056C3.87108 58.6056 0 62.486 0 67.3028C0 72.1196 3.87108 76 8.67631 76C13.3482 76 17.3526 72.1196 17.3526 67.3028ZM93.7042 17.2606V29.838H84.6272C70.6116 29.838 67.4081 25.0212 62.7362 17.9296C57.931 10.5704 51.2568 0.53521 32.7028 0.53521H17.6194C19.6216 2.67594 20.823 5.48569 20.823 8.69707C20.823 11.9085 19.6216 14.7182 17.6194 16.8589H32.5693C42.4471 16.8589 44.8496 20.4714 49.1211 26.8941C51.39 30.3729 54.1936 34.5207 58.3314 38C54.1936 41.4788 51.524 45.6265 49.1211 49.1059C44.8499 55.6623 42.447 59.1411 32.5693 59.1411H17.6194C19.6216 61.2818 20.823 64.0915 20.823 67.3029C20.823 70.5143 19.6216 73.3241 17.6194 75.4648H32.5693C51.2568 75.4648 57.7974 65.4296 62.6027 58.0704C67.408 50.845 70.4783 46.162 84.3603 46.162H93.5706V58.7394L120 38L93.7042 17.2606Z" fill="#4A92FF" />
</svg>
