<svg width="120" height="120" viewBox="0 0 120 120" fill="none" xmlns="http://www.w3.org/2000/svg">
  <g clip-path="url(#clip0_42_1814)">
    <path d="M40.7141 0C34.8155 0 29.9999 4.81564 29.9999 10.7142V42.857H8.24911C3.7081 42.857 0 46.5994 0 51.148V85.9948C0 90.5434 3.70798 94.2858 8.24911 94.2858H29.9999V109.286C29.9999 115.184 34.8155 120 40.7141 120H109.285C115.184 120 120 115.184 120 109.286V34.286C120 32.3347 119.206 30.4936 117.873 29.1298L91.5317 2.16079C90.1535 0.749597 88.2696 0.00102887 86.342 0.00102887L40.7141 0ZM40.7141 4.2857H85.714V25.7142C85.714 30.4258 89.5737 34.2856 94.2854 34.2856H115.714V109.285C115.714 112.884 112.884 115.714 109.285 115.714H40.7141C37.1155 115.714 34.2856 112.884 34.2856 109.285V94.2854H81.7505C86.2916 94.2854 89.9997 90.543 89.9997 85.9943V51.1476C89.9997 46.5989 86.2917 42.8565 81.7505 42.8565H34.2856V10.7138C34.2856 7.11517 37.1155 4.28524 40.7141 4.28524V4.2857ZM89.9997 6.72592L112.734 30.0001H94.2854C91.8742 30.0001 89.9997 28.1256 89.9997 25.7144V6.72592ZM8.24911 47.1429H81.7505C83.976 47.1429 85.714 48.8839 85.714 51.1483V85.995C85.714 88.2592 83.976 90.0003 81.7505 90.0003H8.24911C6.02363 90.0003 4.2857 88.2593 4.2857 85.995V51.1483C4.2857 48.884 6.02363 47.1429 8.24911 47.1429Z" fill="#4A92FF" />
    <path d="M43.9292 55.7141C38.6243 55.7141 34.2864 60.052 34.2864 65.3569V71.7855C34.2864 77.0904 38.6243 81.4283 43.9292 81.4283C49.2341 81.4283 53.572 77.0904 53.572 71.7855V65.3569C53.572 60.052 49.2341 55.7141 43.9292 55.7141ZM43.9292 59.9998C46.9341 59.9998 49.2863 62.352 49.2863 65.3569V71.7855C49.2863 74.7904 46.9341 77.1426 43.9292 77.1426C40.9243 77.1426 38.5721 74.7904 38.5721 71.7855V65.3569C38.5721 62.352 40.9243 59.9998 43.9292 59.9998Z" fill="#4A92FF" />
    <path d="M67.4993 55.7142C62.1944 55.7142 57.8564 60.0521 57.8564 65.357V71.7855C57.8564 77.0904 62.1944 81.4284 67.4993 81.4284C72.8042 81.4284 77.1421 77.0904 77.1421 71.7855V68.5713C77.1421 68.003 76.9162 67.4579 76.5144 67.0561C76.1126 66.6543 75.5675 66.4284 74.9992 66.4284H68.5707C68.0024 66.4284 67.4573 66.6543 67.0555 67.0561C66.6537 67.4578 66.4278 68.0029 66.4278 68.5713C66.4278 69.1396 66.6537 69.6847 67.0555 70.0865C67.4573 70.4882 68.0024 70.7141 68.5707 70.7141H72.8564V71.7856C72.8564 74.7905 70.5041 77.1427 67.4992 77.1427C64.4943 77.1427 62.1421 74.7905 62.1421 71.7856V65.357C62.1421 62.3521 64.4943 59.9999 67.4992 59.9999C69.0992 59.9999 70.4961 60.6758 71.4751 61.7575C71.8568 62.1789 72.3894 62.4311 72.9568 62.4597C73.5242 62.4878 74.08 62.2896 74.501 61.9084C74.9229 61.5276 75.176 60.995 75.2051 60.4276C75.2341 59.8602 75.0368 59.3044 74.656 58.8824C72.8944 56.9356 70.3243 55.7141 67.4993 55.7141L67.4993 55.7142Z" fill="#4A92FF" />
    <path d="M15 55.7141C14.4317 55.7141 13.8867 55.94 13.4849 56.3418C13.0831 56.7436 12.8572 57.2887 12.8572 57.857V79.2855C12.8572 79.8538 13.0831 80.3989 13.4849 80.8007C13.8866 81.2025 14.4317 81.4284 15 81.4284H27.8571C28.4255 81.4284 28.9705 81.2025 29.3723 80.8007C29.7741 80.3989 30 79.8538 30 79.2855C30 78.7172 29.7741 78.1721 29.3723 77.7703C28.9706 77.3685 28.4255 77.1426 27.8571 77.1426H17.1429V57.857C17.1429 57.2887 16.917 56.7436 16.5152 56.3418C16.1134 55.94 15.5683 55.7141 15 55.7141L15 55.7141Z" fill="#4A92FF" />
  </g>
</svg>
