<svg width="120" height="116" viewBox="0 0 120 116" fill="none" xmlns="http://www.w3.org/2000/svg">
  <path d="M72.3531 22.8484C72.3531 24.7897 70.7726 26.3634 68.8234 26.3634C66.8742 26.3634 65.2941 24.7897 65.2941 22.8484C65.2941 10.2285 75.5642 0 88.2353 0C100.906 0 111.177 10.2285 111.177 22.8484C111.177 24.7897 109.596 26.3634 107.647 26.3634C105.698 26.3634 104.118 24.7897 104.118 22.8484C104.118 14.1108 97.0076 7.03049 88.2353 7.03049C79.4622 7.03049 72.3531 14.112 72.3531 22.8484V22.8484ZM86.8443 23.0324L90.3728 16.0035C91.2447 14.2671 93.3647 13.5634 95.1081 14.4318C96.8515 15.2997 97.5581 17.4115 96.6866 19.1478L93.1581 26.1763C93.3979 26.7782 93.5296 27.4345 93.5296 28.1211C93.5296 31.0331 91.1592 33.3939 88.2354 33.3939C85.3116 33.3939 82.9412 31.0331 82.9412 28.1211C82.9412 25.6888 84.5952 23.6409 86.8444 23.0324H86.8443ZM105.883 108.97H116.471C118.42 108.97 120 110.544 120 112.485C120 114.426 118.42 116 116.471 116H3.52934C1.58012 116 0 114.426 0 112.485C0 110.544 1.58012 108.97 3.52934 108.97H14.1175V84.3637C14.1175 82.4223 15.6976 80.8482 17.6468 80.8482H42.3531V70.303C42.3531 68.3613 43.9332 66.7875 45.8824 66.7875H70.5887V45.6961C70.5887 43.7547 72.1688 42.181 74.1181 42.181H102.354C104.304 42.181 105.884 43.7547 105.884 45.6961L105.883 108.97ZM49.4109 73.8184V108.97H70.5881V73.8184H49.4109ZM77.6462 49.2122V108.97H98.8234V49.2122H77.6462ZM21.1755 87.8784V108.97H42.3528V87.8784H21.1755Z" fill="#4A92FF" />
</svg>
