<svg width="120" height="120" viewBox="0 0 120 120" fill="none" xmlns="http://www.w3.org/2000/svg">
  <g clip-path="url(#ssasdfasfda)" fill="#4A92FF">
    <path d="M12.3 79.757a24.126 24.126 0 0 1 1.028 7.757 21.046 21.046 0 0 0 4.286 14.786 21.044 21.044 0 0 0 14.786 4.286 24.13 24.13 0 0 1 7.757 1.028 23.435 23.435 0 0 1 5.872 4.586A21.424 21.424 0 0 0 60 120a21.428 21.428 0 0 0 13.886-7.543 23.431 23.431 0 0 1 5.871-4.585 24.104 24.104 0 0 1 7.757-1.029 21.044 21.044 0 0 0 14.786-4.286 21.042 21.042 0 0 0 4.286-14.786 24.131 24.131 0 0 1 1.028-7.757 23.437 23.437 0 0 1 4.586-5.871A21.429 21.429 0 0 0 120 60a21.428 21.428 0 0 0-7.543-13.886 23.431 23.431 0 0 1-4.585-5.871 24.104 24.104 0 0 1-1.029-7.757 21.045 21.045 0 0 0-4.286-14.786 21.043 21.043 0 0 0-14.786-4.286 24.126 24.126 0 0 1-7.757-1.028 23.44 23.44 0 0 1-6.128-4.672A21.429 21.429 0 0 0 60 0a21.429 21.429 0 0 0-13.886 7.714 23.437 23.437 0 0 1-5.871 4.586 24.126 24.126 0 0 1-7.757 1.028A21.046 21.046 0 0 0 17.7 17.614 21.044 21.044 0 0 0 13.414 32.4a24.126 24.126 0 0 1-1.028 7.757 23.438 23.438 0 0 1-4.672 5.957A21.429 21.429 0 0 0 0 60a21.429 21.429 0 0 0 7.714 13.886 23.437 23.437 0 0 1 4.586 5.871ZM60 21.428a38.57 38.57 0 1 1 0 77.142 38.57 38.57 0 0 1 0-77.142Z" />
    <path d="M85.714 60c0 14.2-11.512 25.712-25.714 25.712-14.202 0-25.714-11.512-25.714-25.714 0-14.202 11.512-25.714 25.714-25.714 14.202 0 25.714 11.512 25.714 25.714Z" />
  </g>

</svg>
