<svg width="120" height="96" viewBox="0 0 120 96" fill="none" xmlns="http://www.w3.org/2000/svg">
  <path fill-rule="evenodd" clip-rule="evenodd" d="M113.977 96H113.375C110.049 96 107.353 93.3494 107.353 90.079V64.2631H105.246V78.0161C105.246 81.2865 102.549 83.9359 99.2239 83.9359H65.4995C62.173 83.9359 59.477 81.2852 59.477 78.0161V64.2631H45.9269V90.079C45.9269 93.3505 43.2308 96 39.9043 96H39.3022C35.977 96 33.2809 93.3494 33.2809 90.079V64.2631H27.2583V10.8072C24.7965 9.88654 22.5925 8.65977 20.8292 7.1177C18.9074 5.43809 17.6362 4.32711 13.8713 4.32711H13.8552L0.00362995 4.3394L0 0.0226736L13.8515 0.0115715H13.8713C19.3091 0.0115715 21.5652 1.98494 23.7483 3.89213C25.0678 5.04553 26.7291 5.98253 28.6049 6.70809C30.6182 2.73588 34.7924 0 39.6047 0C44.4129 0 48.5859 2.7307 50.6005 6.69815C52.49 5.97095 54.1552 5.03559 55.4636 3.89172C57.6467 1.98413 59.9028 0.0111657 65.3405 0.0111657H65.3603L79.2118 0.0222678L79.2082 4.33899L65.3567 4.3267H65.3393C61.5729 4.3267 60.3029 5.43768 58.3814 7.11729C56.6307 8.64861 54.4255 9.87266 51.9512 10.7973V59.9462H59.4788V44.8605C59.4788 42.0616 61.4551 39.7178 64.11 39.1005C64.1434 29.233 72.3193 21.2142 82.3629 21.2142C92.4084 21.2142 100.583 29.2327 100.617 39.1005C103.272 39.7182 105.248 42.0616 105.248 44.8605V59.9462H107.354V32.7966C107.354 29.5262 110.051 26.8755 113.377 26.8755H113.979C117.305 26.8755 120 29.5262 120 32.7966V90.0782C120 93.3497 117.304 95.9992 113.979 95.9992L113.977 96ZM39.6027 4.31615C35.2513 4.31615 31.7104 7.79626 31.7104 12.0753C31.7104 16.3533 35.2502 19.8345 39.6027 19.8345C43.9551 19.8345 47.4949 16.3532 47.4949 12.0753C47.4937 7.79708 43.9539 4.31615 39.6027 4.31615ZM48.0338 20.8433C45.8321 22.8908 42.8662 24.1489 39.6027 24.1489C36.3403 24.1489 33.3732 22.8896 31.1716 20.8433V59.9452H33.2788L33.2792 32.7966C33.2792 29.5262 35.9753 26.8755 39.3006 26.8755H39.9027C43.2292 26.8755 45.9252 29.5262 45.9252 32.7966V59.9462H48.0325V20.8433H48.0338ZM82.359 23.0641C73.4077 23.0641 66.1153 30.1655 65.9924 38.9386H98.7267C98.6053 30.1646 91.3115 23.0641 82.359 23.0641V23.0641Z" fill="#4A92FF" />
</svg>
