<svg width="120" height="55" viewBox="0 0 120 55" fill="none" xmlns="http://www.w3.org/2000/svg">
  <path d="M66.2869 28.2263V27.4274C66.2869 27.323 66.3391 27.2682 66.4435 27.263H75.5915C75.696 27.263 75.7482 27.3178 75.7482 27.4274V28.2263C75.7482 28.3308 75.696 28.3856 75.5915 28.3908H71.6598V38.3377C71.6598 38.4421 71.6075 38.4943 71.5031 38.4943H70.3753C70.2708 38.4943 70.2186 38.4421 70.2186 38.3377V28.3908H66.4435C66.3391 28.3856 66.2869 28.3308 66.2869 28.2263Z" fill="#E7E7E7" />
  <path d="M78.1761 37.1785C77.205 36.1395 76.7194 34.7062 76.7194 32.8786C76.7194 31.0511 77.205 29.6205 78.1761 28.5866C79.1526 27.5475 80.4031 27.028 81.9278 27.028C83.4577 27.028 84.7082 27.5475 85.6794 28.5866C86.6558 29.6205 87.144 31.0511 87.144 32.8786C87.144 34.7062 86.6558 36.1395 85.6794 37.1785C84.7082 38.2176 83.4577 38.7371 81.9278 38.7371C80.4031 38.7371 79.1526 38.2176 78.1761 37.1785ZM84.6221 29.3463C83.9067 28.5474 83.0086 28.148 81.9278 28.148C80.8522 28.148 79.9541 28.5474 79.2335 29.3463C78.5182 30.14 78.1605 31.3174 78.1605 32.8786C78.1605 34.4399 78.5182 35.6199 79.2335 36.4188C79.9541 37.2125 80.8522 37.6093 81.9278 37.6093C83.0086 37.6093 83.9067 37.2125 84.6221 36.4188C85.3426 35.6199 85.7029 34.4399 85.7029 32.8786C85.7029 31.3174 85.3426 30.14 84.6221 29.3463Z" fill="#E7E7E7" />
  <path d="M89.7208 38.3377V27.4274C89.7208 27.323 89.773 27.2682 89.8775 27.263H94.5298C95.8665 27.263 96.8951 27.5841 97.6157 28.2263C98.3415 28.8686 98.7044 29.8058 98.7044 31.0381C98.7044 32.2651 98.3415 33.1998 97.6157 33.842C96.8951 34.4843 95.8665 34.8054 94.5298 34.8054H91.1619V38.3377C91.1619 38.4421 91.1097 38.4943 91.0053 38.4943H89.8775C89.773 38.4943 89.7208 38.4421 89.7208 38.3377ZM91.1619 33.6854H94.5298C95.3757 33.6854 96.0414 33.4661 96.527 33.0275C97.0126 32.5889 97.2554 31.9257 97.2554 31.0381C97.2554 30.1504 97.0126 29.4873 96.527 29.0487C96.0414 28.6101 95.3757 28.3908 94.5298 28.3908H91.1619V33.6854Z" fill="#E7E7E7" />
  <path d="M99.5267 38.3377L103.78 27.7486C103.91 27.43 104.15 27.2682 104.5 27.263H104.986C105.341 27.263 105.581 27.4248 105.706 27.7486L109.959 38.3377C109.975 38.369 109.983 38.3925 109.983 38.4082C109.983 38.4656 109.931 38.4943 109.826 38.4943H108.675C108.57 38.4943 108.489 38.4421 108.432 38.3377L107.312 35.6043H102.174L101.054 38.3377C101.002 38.4421 100.921 38.4943 100.811 38.4943H99.6599C99.5607 38.4943 99.5111 38.4656 99.5111 38.4082C99.5058 38.3925 99.5111 38.369 99.5267 38.3377ZM102.581 34.4843H106.912L104.743 29.1114L102.581 34.4843Z" fill="#E7E7E7" />
  <path d="M111.252 38.3377V37.7738C111.252 37.5597 111.387 37.2647 111.659 36.8887L118.23 28.3908H111.416C111.306 28.3908 111.252 28.336 111.252 28.2263V27.4274C111.252 27.3178 111.306 27.263 111.416 27.263H119.836C119.945 27.263 120 27.3178 120 27.4274V27.9914C120 28.2054 119.864 28.4978 119.593 28.8686L113.006 37.3743H119.836C119.945 37.3743 120 37.4265 120 37.531V38.3377C120 38.4421 119.945 38.4943 119.836 38.4943H111.416C111.306 38.4943 111.252 38.4421 111.252 38.3377Z" fill="#E7E7E7" />
  <path d="M31.7466 14.4743L43.7844 26.5788L31.7466 38.6833L19.7087 26.5788L31.7466 14.4743Z" fill="#61A1DC" />
  <path d="M31.32 13.6901L18.9279 26.1509H5.31226L31.3195 0.000557899L31.32 13.6901Z" fill="#6AB5FA" />
  <path d="M18.9284 27.0088L31.3205 39.4695V53.1591L5.31372 27.0088H18.9284Z" fill="#6AB5FA" />
  <path d="M32.1736 39.469L44.5657 27.0083H58.1809L32.1741 53.1586L32.1736 39.469Z" fill="#0B4781" />
  <path d="M44.5652 26.1503L32.1731 13.6896V0L58.1799 26.1503H44.5652Z" fill="#147ADB" />
  <path d="M43.2421 39.8297C41.7075 41.4772 38.7135 41.3177 36.7433 39.6135C34.7685 37.9063 34.3749 35.4651 35.7004 34.0383C36.3964 33.3411 40.2234 29.8604 43.1526 25.8734C46.2459 22.0139 48.4411 17.6479 49.6663 18.1222C50.8617 18.5264 50.8653 24.0609 49.0542 29.1601C47.4531 34.342 44.0373 39.0887 43.2421 39.8297Z" fill="#1C5286" />
  <path d="M39.6326 32.5542C41.1684 32.0471 49.1772 28.2962 49.3761 28.1884C49.2759 28.5131 49.1686 28.8375 49.054 29.1601C47.4529 34.3422 44.0372 39.0888 43.2419 39.8296C41.7073 41.4771 38.7133 41.3176 36.7431 39.6135C35.9994 38.9706 35.4802 38.2236 35.1924 37.466C35.2679 37.0982 35.3985 33.9522 39.6326 32.5542Z" fill="#1C60A1" />
  <path d="M44.6782 44.1738C42.6068 45.0561 39.9357 43.6942 38.8274 41.3369C37.716 38.9749 38.348 36.5841 40.1386 35.8186C41.0576 35.4643 45.9685 33.8379 50.2645 31.3839C54.6588 29.1133 58.438 26.0153 59.3649 26.9462C60.293 27.8012 58.0485 32.86 54.3226 36.7842C50.755 40.8693 45.7058 43.8196 44.6782 44.1738Z" fill="#1D6EBA" />
  <path d="M53.6955 32.5816C53.4646 33.2352 53.2044 33.8914 52.9129 34.5376C50.8907 39.5701 47.0956 44.0197 46.2421 44.6925C44.5771 46.2081 41.6065 45.8026 39.7833 43.942C37.9556 42.0782 37.7644 39.6127 39.2027 38.2999C39.3456 38.1787 52.9341 32.9506 53.6955 32.5816Z" fill="#227FD7" />
  <path d="M43.037 48.0842C40.7859 48.0497 38.8973 45.7211 38.8411 43.1169C38.7841 40.5071 40.3321 38.5786 42.2792 38.6057C43.263 38.655 48.4114 39.1618 53.3334 38.6628C58.271 38.3711 62.9822 37.0736 63.4516 38.3008C63.9529 39.4588 59.8482 43.1714 54.8504 45.2454C49.9321 47.5306 44.1199 48.1777 43.037 48.0842Z" fill="#3990E0" />
  <path d="M20.2513 39.8297C21.786 41.4772 24.78 41.3177 26.7501 39.6135C28.725 37.9063 29.1186 35.4651 27.793 34.0383C27.0971 33.3411 23.27 29.8604 20.3409 25.8734C17.2476 22.0139 15.0523 17.6479 13.8271 18.1222C12.6318 18.5264 12.6282 24.0609 14.4392 29.1601C16.0403 34.342 19.4562 39.0887 20.2513 39.8297Z" fill="#1C5286" />
  <path d="M23.8609 32.5542C22.3251 32.0471 14.3163 28.2962 14.1174 28.1884C14.2176 28.5131 14.3249 28.8375 14.4395 29.1601C16.0406 34.3422 19.4563 39.0888 20.2516 39.8296C21.7862 41.4771 24.7802 41.3176 26.7504 39.6135C27.4941 38.9706 28.0133 38.2236 28.3011 37.466C28.2256 37.0982 28.095 33.9522 23.8609 32.5542Z" fill="#1C60A1" />
  <path d="M18.8151 44.1738C20.8866 45.0561 23.5577 43.6942 24.6659 41.3369C25.7773 38.9749 25.1454 36.5841 23.3548 35.8186C22.4357 35.4643 17.5248 33.8379 13.2288 31.3839C8.83452 29.1133 5.0553 26.0153 4.12844 26.9462C3.20035 27.8012 5.44481 32.86 9.17071 36.7842C12.7384 40.8693 17.7877 43.8196 18.8151 44.1738Z" fill="#1D6EBA" />
  <path d="M9.65015 32.5816C9.88107 33.2352 10.1413 33.8914 10.4328 34.5376C12.4551 39.5701 16.2502 44.0196 17.1037 44.6924C18.7687 46.208 21.7393 45.8025 23.5625 43.9419C25.3902 42.078 25.5813 39.6125 24.143 38.2997C24.0001 38.1785 10.4116 32.9506 9.65015 32.5816Z" fill="#227FD7" />
  <path d="M20.4564 48.0842C22.7075 48.0498 24.5961 45.7211 24.6523 43.1169C24.7093 40.5071 23.1613 38.5786 21.2142 38.6058C20.2304 38.655 15.082 39.1618 10.16 38.6628C5.22231 38.371 0.510911 37.0736 0.0415315 38.3008C-0.459719 39.4588 3.6449 43.1714 8.64277 45.2454C13.5614 47.5307 19.3736 48.1777 20.4564 48.0842Z" fill="#3990E0" />
  <path d="M47.5809 44.9548C47.5809 53.6998 40.4917 54.858 31.7469 54.858C23.002 54.858 15.9128 53.6996 15.9128 44.9548C15.9128 36.21 23.0018 28.0016 31.7467 28.0016C40.4917 28.0016 47.5809 36.21 47.5809 44.9548Z" fill="url(#paint0_linear_42_1754)" />
  <path d="M28.7182 32.2614C27.3651 32.7278 26.1793 33.4517 25.1933 34.4128C24.809 34.7875 24.1938 34.7797 23.819 34.3953C23.4443 34.0109 23.4522 33.3956 23.8365 33.021C25.0293 31.8583 26.4585 30.9844 28.0844 30.4237C28.5919 30.2487 29.1458 30.518 29.3199 31.0256C29.5546 31.7086 28.8582 32.213 28.7182 32.2614Z" fill="#D5EBFF" />
  <path d="M21.8987 42.9379C22.8875 42.9379 23.6891 42.1363 23.6891 41.1475C23.6891 40.1588 22.8875 39.3572 21.8987 39.3572C20.91 39.3572 20.1084 40.1588 20.1084 41.1475C20.1084 42.1363 20.91 42.9379 21.8987 42.9379Z" fill="black" />
  <path d="M41.8174 42.9379C42.8062 42.9379 43.6078 42.1363 43.6078 41.1475C43.6078 40.1588 42.8062 39.3572 41.8174 39.3572C40.8287 39.3572 40.0271 40.1588 40.0271 41.1475C40.0271 42.1363 40.8287 42.9379 41.8174 42.9379Z" fill="black" />
  <path d="M31.5712 48.4755C32.7893 48.4755 33.9171 48.2994 34.9544 47.9473C35.9918 47.5952 36.953 47.0765 37.8381 46.3913L38.4805 47.3335C37.5764 48.0758 36.5343 48.6706 35.3542 49.1179C34.1836 49.5747 32.9226 49.8031 31.5712 49.8031C30.2198 49.8031 28.954 49.5747 27.7739 49.1179C26.6033 48.6706 25.566 48.0758 24.6619 47.3335L25.3043 46.3913C26.1893 47.0765 27.1506 47.5952 28.1879 47.9473C29.2253 48.2994 30.353 48.4755 31.5712 48.4755Z" fill="black" />
  <defs>
    <linearGradient id="paint0_linear_42_1754" x1="31.7469" y1="28.0016" x2="31.7469" y2="54.858" gradientUnits="userSpaceOnUse">
      <stop stop-color="#86BAEB" />
      <stop offset="1" stop-color="#005CB3" />
    </linearGradient>
  </defs>
</svg>
