<svg width="466" height="402" viewBox="0 0 466 402" fill="none" xmlns="http://www.w3.org/2000/svg">
<g clip-path="url(#clip0_604_330)">
<path d="M232.64 106.067L320.853 194.769L232.64 283.471L144.426 194.769L232.64 106.067V106.067Z" fill="#61A1DC"/>
<path d="M229.513 100.321L138.703 191.633H38.9277L229.508 0.00292969L229.512 100.321H229.513ZM138.706 197.92L229.516 289.233V389.55L38.9377 197.92H138.706V197.92Z" fill="#6AB5FA"/>
<path d="M235.768 289.23L326.578 197.917H426.35L235.772 389.547L235.768 289.23V289.23Z" fill="#0B4781"/>
<path d="M326.575 191.63L235.766 100.317V0L426.344 191.63H326.575Z" fill="#147ADB"/>
<path d="M316.877 291.872C305.631 303.945 283.691 302.776 269.254 290.288C254.782 277.777 251.898 259.889 261.612 249.433C266.711 244.324 294.756 218.817 316.221 189.601C338.889 161.318 354.976 129.324 363.954 132.799C372.713 135.762 372.74 176.318 359.468 213.685C347.736 251.658 322.704 286.442 316.877 291.872Z" fill="#1C5286"/>
<path d="M290.429 238.557C301.684 234.841 360.371 207.354 361.829 206.564C361.095 208.944 360.309 211.321 359.469 213.685C347.736 251.659 322.706 286.443 316.878 291.871C305.632 303.944 283.692 302.776 269.255 290.288C263.805 285.577 260 280.102 257.891 274.551C258.444 271.855 259.401 248.801 290.429 238.557V238.557Z" fill="#1C60A1"/>
<path d="M327.402 323.705C312.222 330.171 292.649 320.191 284.527 302.917C276.383 285.608 281.014 268.088 294.136 262.479C300.87 259.882 336.858 247.964 368.339 229.982C400.54 213.342 428.234 190.64 435.026 197.462C441.827 203.727 425.38 240.798 398.076 269.555C371.933 299.49 334.932 321.11 327.402 323.705V323.705Z" fill="#1D6EBA"/>
<path d="M393.481 238.758C391.771 243.614 389.858 248.396 387.747 253.092C372.927 289.97 345.117 322.576 338.863 327.506C326.661 338.613 304.893 335.642 291.532 322.007C278.139 308.349 276.738 290.282 287.278 280.661C288.325 279.773 387.901 241.462 393.481 238.758Z" fill="#227FD7"/>
<path d="M315.374 352.362C298.877 352.109 285.038 335.044 284.626 315.961C284.208 296.836 295.552 282.704 309.821 282.903C317.03 283.264 354.757 286.978 390.826 283.321C427.008 281.184 461.533 271.676 464.972 280.668C468.645 289.154 438.567 316.361 401.942 331.558C365.901 348.305 323.309 353.047 315.374 352.362V352.362Z" fill="#3990E0"/>
<path d="M148.402 291.872C159.648 303.945 181.587 302.776 196.025 290.288C210.497 277.777 213.381 259.889 203.667 249.433C198.567 244.324 170.523 218.817 149.058 189.601C126.39 161.318 110.303 129.324 101.325 132.799C92.5649 135.762 92.5389 176.318 105.811 213.685C117.543 251.658 142.575 286.442 148.402 291.872V291.872Z" fill="#1C5286"/>
<path d="M174.851 238.557C163.596 234.841 104.909 207.354 103.451 206.564C104.185 208.944 104.971 211.321 105.811 213.685C117.544 251.659 142.574 286.443 148.402 291.871C159.648 303.944 181.588 302.776 196.025 290.288C201.475 285.577 205.28 280.102 207.389 274.551C206.836 271.855 205.879 248.801 174.851 238.557V238.557Z" fill="#1C60A1"/>
<path d="M137.876 323.705C153.056 330.171 172.629 320.191 180.751 302.917C188.895 285.608 184.264 268.088 171.143 262.479C164.408 259.882 128.42 247.964 96.9402 229.982C64.7382 213.342 37.0442 190.64 30.2522 197.462C23.4512 203.727 39.8982 240.798 67.2022 269.555C93.3462 299.49 130.347 321.11 137.876 323.705V323.705Z" fill="#1D6EBA"/>
<path d="M70.7168 238.758C72.4088 243.548 74.3168 248.356 76.4518 253.092C91.2718 289.97 119.082 322.576 125.337 327.506C137.538 338.613 159.307 335.641 172.667 322.007C186.06 308.348 187.461 290.281 176.921 280.661C175.874 279.772 76.2968 241.462 70.7168 238.758Z" fill="#227FD7"/>
<path d="M149.904 352.362C166.401 352.109 180.24 335.045 180.652 315.961C181.07 296.836 169.726 282.704 155.458 282.903C148.249 283.264 110.521 286.978 74.4533 283.321C38.2693 281.183 3.74431 271.676 0.304314 280.669C-3.36869 289.155 26.7103 316.361 63.3343 331.559C99.3783 348.305 141.97 353.047 149.904 352.362Z" fill="#3990E0"/>
<path d="M348.673 329.429C348.673 393.512 296.723 402 232.641 402C168.558 402 116.609 393.511 116.609 329.429C116.609 265.347 168.557 205.196 232.64 205.196C296.723 205.196 348.673 265.347 348.673 329.429V329.429Z" fill="#6BB1F2"/>
<path d="M210.446 236.412C200.531 239.83 191.842 245.134 184.617 252.177C183.949 252.837 183.157 253.358 182.286 253.711C181.416 254.064 180.484 254.241 179.545 254.232C178.606 254.223 177.678 254.028 176.814 253.659C175.95 253.29 175.168 252.754 174.513 252.082C173.857 251.409 173.341 250.614 172.994 249.741C172.647 248.868 172.476 247.935 172.491 246.996C172.506 246.057 172.707 245.13 173.081 244.269C173.456 243.408 173.997 242.629 174.674 241.978C183.414 233.457 193.887 227.054 205.802 222.945C209.521 221.663 213.58 223.636 214.856 227.356C216.576 232.361 211.473 236.057 210.446 236.412Z" fill="#D5EBFF"/>
<path d="M160.474 314.649C167.72 314.649 173.594 308.775 173.594 301.529C173.594 294.284 167.72 288.41 160.474 288.41C153.229 288.41 147.355 294.284 147.355 301.529C147.355 308.775 153.229 314.649 160.474 314.649ZM306.439 314.649C313.685 314.649 319.559 308.775 319.559 301.529C319.559 294.284 313.685 288.41 306.439 288.41C299.194 288.41 293.32 294.284 293.32 301.529C293.32 308.775 299.194 314.649 306.439 314.649V314.649ZM231.354 355.229C240.281 355.229 248.545 353.938 256.147 351.358C263.749 348.778 270.792 344.977 277.278 339.956L281.986 346.86C275.36 352.3 267.724 356.658 259.076 359.936C250.498 363.284 241.257 364.957 231.354 364.957C221.451 364.957 212.176 363.284 203.528 359.936C194.95 356.658 187.348 352.3 180.723 346.86L185.43 339.956C191.916 344.977 198.96 348.778 206.562 351.358C214.163 353.938 222.427 355.229 231.354 355.229Z" fill="black"/>
</g>
<defs>
<clipPath id="clip0_604_330">
<rect width="466" height="402" fill="white"/>
</clipPath>
</defs>
</svg>
