<svg width="123" height="56" viewBox="0 0 123 56" fill="none" xmlns="http://www.w3.org/2000/svg">
<path d="M67.3926 28.7395V27.9261C67.3926 27.8198 67.4457 27.764 67.5518 27.7586H76.8523C76.9585 27.7586 77.0116 27.8145 77.0116 27.9261V28.7395C77.0116 28.8459 76.9585 28.9017 76.8523 28.907H72.855V39.0347C72.855 39.1411 72.8019 39.1942 72.6958 39.1942H71.5491C71.443 39.1942 71.3899 39.1411 71.3899 39.0347V28.907H67.5518C67.4457 28.9017 67.3926 28.8459 67.3926 28.7395Z" fill="#E7E7E7"/>
<path d="M79.48 37.8545C78.4926 36.7965 77.9989 35.3372 77.9989 33.4764C77.9989 31.6157 78.4926 30.159 79.48 29.1064C80.4727 28.0484 81.7441 27.5194 83.2942 27.5194C84.8496 27.5194 86.1209 28.0484 87.1083 29.1064C88.101 30.159 88.5974 31.6157 88.5974 33.4764C88.5974 35.3372 88.101 36.7965 87.1083 37.8545C86.1209 38.9125 84.8496 39.4414 83.2942 39.4414C81.7441 39.4414 80.4727 38.9125 79.48 37.8545ZM86.0334 29.8799C85.3061 29.0665 84.393 28.6598 83.2942 28.6598C82.2006 28.6598 81.2876 29.0665 80.555 29.8799C79.8277 30.688 79.4641 31.8868 79.4641 33.4764C79.4641 35.066 79.8277 36.2676 80.555 37.081C81.2876 37.8891 82.2006 38.2931 83.2942 38.2931C84.393 38.2931 85.3061 37.8891 86.0334 37.081C86.7659 36.2676 87.1322 35.066 87.1322 33.4764C87.1322 31.8868 86.7659 30.688 86.0334 29.8799Z" fill="#E7E7E7"/>
<path d="M91.2171 39.0347V27.9261C91.2171 27.8198 91.2702 27.764 91.3763 27.7586H96.1062C97.4652 27.7586 98.511 28.0856 99.2435 28.7395C99.9814 29.3934 100.35 30.3477 100.35 31.6024C100.35 32.8518 99.9814 33.8034 99.2435 34.4573C98.511 35.1112 97.4652 35.4382 96.1062 35.4382H92.6822V39.0347C92.6822 39.1411 92.6292 39.1942 92.523 39.1942H91.3763C91.2702 39.1942 91.2171 39.1411 91.2171 39.0347ZM92.6822 34.2978H96.1062C96.9662 34.2978 97.643 34.0745 98.1367 33.628C98.6304 33.1814 98.8773 32.5062 98.8773 31.6024C98.8773 30.6986 98.6304 30.0234 98.1367 29.5769C97.643 29.1303 96.9662 28.907 96.1062 28.907H92.6822V34.2978Z" fill="#E7E7E7"/>
<path d="M101.186 39.0347L105.51 28.2531C105.643 27.9288 105.887 27.764 106.243 27.7586H106.736C107.097 27.7586 107.342 27.9235 107.469 28.2531L111.793 39.0347C111.809 39.0666 111.817 39.0906 111.817 39.1065C111.817 39.165 111.764 39.1942 111.657 39.1942H110.487C110.381 39.1942 110.298 39.1411 110.24 39.0347L109.101 36.2516H103.878L102.739 39.0347C102.686 39.1411 102.604 39.1942 102.492 39.1942H101.322C101.221 39.1942 101.171 39.165 101.171 39.1065C101.165 39.0906 101.171 39.0666 101.186 39.0347ZM104.292 35.1112H108.695L106.49 29.6407L104.292 35.1112Z" fill="#E7E7E7"/>
<path d="M113.107 39.0347V38.4606C113.107 38.2426 113.245 37.9422 113.521 37.5594L120.201 28.907H113.274C113.162 28.907 113.107 28.8512 113.107 28.7395V27.9261C113.107 27.8145 113.162 27.7586 113.274 27.7586H121.834C121.945 27.7586 122.001 27.8145 122.001 27.9261V28.5003C122.001 28.7183 121.863 29.016 121.587 29.3934L114.89 38.0539H121.834C121.945 38.0539 122.001 38.107 122.001 38.2134V39.0347C122.001 39.1411 121.945 39.1942 121.834 39.1942H113.274C113.162 39.1942 113.107 39.1411 113.107 39.0347Z" fill="#E7E7E7"/>
<path d="M32.2756 14.7374L44.5141 27.062L32.2756 39.3866L20.0371 27.062L32.2756 14.7374Z" fill="#61A1DC"/>
<path d="M31.8416 13.939L19.2429 26.6263H5.40039L31.8411 0.000549316L31.8416 13.939Z" fill="#6AB5FA"/>
<path d="M19.242 27.4998L31.8406 40.1872V54.1256L5.40039 27.4998H19.242Z" fill="#6AB5FA"/>
<path d="M32.709 40.1867L45.3077 27.4993H59.1497L32.7095 54.1251L32.709 40.1867Z" fill="#0B4781"/>
<path d="M45.3077 26.6258L32.709 13.9385V0L59.1492 26.6258H45.3077Z" fill="#147ADB"/>
<path d="M43.9627 40.5541C42.4025 42.2316 39.3587 42.0692 37.3557 40.3341C35.3479 38.5958 34.9477 36.1102 36.2954 34.6574C37.0029 33.9476 40.8938 30.4035 43.8717 26.3441C47.0166 22.4144 49.2484 17.9691 50.4941 18.4519C51.7093 18.8635 51.713 24.4986 49.8717 29.6905C48.244 34.9666 44.7712 39.7997 43.9627 40.5541Z" fill="#1C5286"/>
<path d="M40.2915 33.1463C41.853 32.63 49.9952 28.8109 50.1974 28.7012C50.0956 29.0317 49.9865 29.362 49.87 29.6906C48.2422 34.9668 44.7696 39.7998 43.961 40.5541C42.4008 42.2315 39.3569 42.0691 37.3539 40.334C36.5979 39.6794 36.07 38.9188 35.7773 38.1474C35.8541 37.7729 35.9869 34.5697 40.2915 33.1463Z" fill="#1C60A1"/>
<path d="M45.4236 44.9772C43.3176 45.8756 40.602 44.4889 39.4753 42.0887C38.3454 39.6838 38.9879 37.2495 40.8083 36.4701C41.7427 36.1093 46.7354 34.4534 51.103 31.9548C55.5706 29.6429 59.4128 26.4886 60.3551 27.4364C61.2986 28.3069 59.0168 33.4578 55.2288 37.4533C51.6016 41.6126 46.4683 44.6166 45.4236 44.9772Z" fill="#1D6EBA"/>
<path d="M54.5909 33.1742C54.3562 33.8398 54.0916 34.5079 53.7953 35.1659C51.7393 40.2899 47.881 44.8203 47.0133 45.5053C45.3205 47.0485 42.3004 46.6357 40.4468 44.7413C38.5886 42.8435 38.3943 40.3332 39.8566 38.9965C40.0019 38.8731 53.8168 33.55 54.5909 33.1742Z" fill="#227FD7"/>
<path d="M43.7537 48.9587C41.465 48.9236 39.545 46.5526 39.4879 43.901C39.4299 41.2438 41.0037 39.2802 42.9832 39.3079C43.9834 39.358 49.2176 39.8741 54.2216 39.366C59.2415 39.069 64.0313 37.7479 64.5085 38.9974C65.0181 40.1765 60.8451 43.9566 55.7639 46.0682C50.7637 48.3951 44.8546 49.0539 43.7537 48.9587Z" fill="#3990E0"/>
<path d="M20.5891 40.5541C22.1493 42.2316 25.1932 42.0692 27.1962 40.3341C29.204 38.5958 29.6041 36.1102 28.2565 34.6574C27.5489 33.9476 23.6581 30.4035 20.6801 26.3441C17.5352 22.4144 15.3034 17.9691 14.0578 18.4519C12.8425 18.8635 12.8389 24.4986 14.6801 29.6905C16.3079 34.9666 19.7807 39.7997 20.5891 40.5541Z" fill="#1C5286"/>
<path d="M24.2594 33.1463C22.6979 32.63 14.5557 28.8109 14.3535 28.7012C14.4554 29.0317 14.5644 29.362 14.6809 29.6906C16.3087 34.9668 19.7814 39.7998 20.5899 40.5541C22.1501 42.2315 25.194 42.0691 27.197 40.334C27.9531 39.6794 28.481 38.9188 28.7736 38.1474C28.6968 37.7729 28.5641 34.5697 24.2594 33.1463Z" fill="#1C60A1"/>
<path d="M19.1286 44.9772C21.2346 45.8755 23.9501 44.4889 25.0769 42.0887C26.2068 39.6837 25.5643 37.2495 23.7439 36.47C22.8095 36.1093 17.8167 34.4533 13.4492 31.9548C8.98162 29.6429 5.13942 26.4885 4.19712 27.4364C3.25356 28.3069 5.53543 33.4577 9.32342 37.4533C12.9505 41.6126 18.084 44.6165 19.1286 44.9772Z" fill="#1D6EBA"/>
<path d="M9.81055 33.1742C10.0453 33.8397 10.3099 34.5078 10.6062 35.1658C12.6622 40.2898 16.5206 44.8202 17.3883 45.5052C19.0811 47.0484 22.1012 46.6355 23.9548 44.7411C25.8129 42.8433 26.0072 40.333 24.5449 38.9963C24.3997 38.8729 10.5847 33.5499 9.81055 33.1742Z" fill="#227FD7"/>
<path d="M20.7973 48.9587C23.086 48.9236 25.006 46.5526 25.0631 43.9011C25.1211 41.2438 23.5473 39.2803 21.5678 39.3079C20.5676 39.358 15.3334 39.8741 10.3294 39.366C5.30935 39.0689 0.519426 37.7479 0.0422237 38.9974C-0.467381 40.1765 3.70565 43.9566 8.78682 46.0683C13.7874 48.3951 19.6965 49.0539 20.7973 48.9587Z" fill="#3990E0"/>
<path d="M48.3755 45.7724C48.3755 54.6764 41.1682 55.8557 32.2776 55.8557C23.387 55.8557 16.1797 54.6763 16.1797 45.7724C16.1797 36.8686 23.3868 28.511 32.2775 28.511C41.1682 28.511 48.3755 36.8686 48.3755 45.7724Z" fill="#6BB1F2"/>
<path d="M29.1959 32.8482C27.8203 33.3231 26.6147 34.0601 25.6123 35.0387C25.2216 35.4202 24.5961 35.4123 24.2151 35.0209C23.8341 34.6295 23.8422 34.003 24.2329 33.6216C25.4455 32.4377 26.8985 31.548 28.5516 30.977C29.0675 30.7989 29.6307 31.0731 29.8077 31.5899C30.0462 32.2854 29.3383 32.799 29.1959 32.8482Z" fill="#D5EBFF"/>
<path d="M22.2655 43.7188C23.2707 43.7188 24.0857 42.9026 24.0857 41.8959C24.0857 40.8891 23.2707 40.073 22.2655 40.073C21.2602 40.073 20.4453 40.8891 20.4453 41.8959C20.4453 42.9026 21.2602 43.7188 22.2655 43.7188Z" fill="black"/>
<path d="M42.5155 43.7188C43.5207 43.7188 44.3357 42.9026 44.3357 41.8959C44.3357 40.8891 43.5207 40.073 42.5155 40.073C41.5102 40.073 40.6953 40.8891 40.6953 41.8959C40.6953 42.9026 41.5102 43.7188 42.5155 43.7188Z" fill="black"/>
<path d="M32.0966 49.3571C33.3351 49.3571 34.4817 49.1779 35.5363 48.8194C36.5909 48.4608 37.5682 47.9327 38.468 47.235L39.1211 48.1944C38.2019 48.9502 37.1424 49.5558 35.9427 50.0112C34.7526 50.4763 33.4706 50.7089 32.0966 50.7089C30.7227 50.7089 29.4359 50.4763 28.2361 50.0112C27.046 49.5558 25.9914 48.9502 25.0722 48.1944L25.7253 47.235C26.6251 47.9327 27.6024 48.4608 28.657 48.8194C29.7116 49.1779 30.8582 49.3571 32.0966 49.3571Z" fill="black"/>
</svg>
