<svg width="466" height="446" viewBox="0 0 466 446" fill="none" xmlns="http://www.w3.org/2000/svg">
<g clip-path="url(#clip0_604_281)">
<path d="M232.64 150.068L320.853 238.77L232.64 327.472L144.426 238.77L232.64 150.068V150.068Z" fill="#61A1DC"/>
<path d="M229.513 144.321L138.703 235.633H38.9277L229.509 44.003L229.513 144.321V144.321ZM138.707 241.92L229.516 333.233V433.55L38.9377 241.92H138.707Z" fill="#6AB5FA"/>
<path d="M235.768 333.229L326.578 241.917H426.35L235.772 433.547L235.768 333.229V333.229Z" fill="#0B4781"/>
<path d="M326.575 235.63L235.766 144.317V44L426.344 235.63H326.575Z" fill="#147ADB"/>
<path d="M316.877 335.872C305.631 347.945 283.691 346.776 269.254 334.288C254.782 321.778 251.898 303.889 261.612 293.433C266.711 288.324 294.756 262.817 316.221 233.601C338.889 205.318 354.976 173.324 363.954 176.799C372.713 179.762 372.74 220.318 359.468 257.685C347.736 295.658 322.704 330.442 316.877 335.872Z" fill="#1C5286"/>
<path d="M290.429 282.557C301.684 278.841 360.371 251.354 361.829 250.565C361.092 252.955 360.305 255.329 359.469 257.686C347.736 295.66 322.706 330.443 316.878 335.872C305.632 347.945 283.692 346.776 269.255 334.288C263.805 329.577 260 324.103 257.891 318.551C258.444 315.856 259.401 292.802 290.429 282.557Z" fill="#1C60A1"/>
<path d="M327.402 367.706C312.222 374.171 292.649 364.191 284.527 346.917C276.383 329.608 281.014 312.088 294.136 306.479C300.87 303.882 336.858 291.964 368.339 273.982C400.54 257.343 428.234 234.64 435.026 241.462C441.827 247.727 425.38 284.799 398.076 313.555C371.933 343.49 334.932 365.11 327.402 367.706Z" fill="#1D6EBA"/>
<path d="M393.481 282.758C391.771 287.614 389.858 292.396 387.747 297.092C372.927 333.97 345.117 366.577 338.862 371.507C326.661 382.613 304.893 379.642 291.532 366.007C278.139 352.349 276.738 334.282 287.278 324.662C288.325 323.773 387.901 285.462 393.481 282.758V282.758Z" fill="#227FD7"/>
<path d="M315.374 396.361C298.877 396.109 285.038 379.044 284.626 359.961C284.208 340.836 295.552 326.704 309.821 326.903C317.03 327.264 354.757 330.978 390.826 327.321C427.008 325.184 461.533 315.675 464.972 324.668C468.645 333.154 438.567 360.36 401.942 375.558C365.901 392.305 323.309 397.047 315.374 396.361Z" fill="#3990E0"/>
<path d="M148.402 335.872C159.648 347.945 181.587 346.776 196.025 334.288C210.497 321.778 213.381 303.889 203.667 293.433C198.567 288.324 170.523 262.817 149.058 233.601C126.39 205.318 110.303 173.324 101.325 176.799C92.5649 179.762 92.5389 220.318 105.811 257.685C117.543 295.658 142.575 330.442 148.402 335.872V335.872Z" fill="#1C5286"/>
<path d="M174.851 282.557C163.596 278.841 104.909 251.354 103.451 250.565C104.185 252.944 104.971 255.321 105.811 257.686C117.544 295.66 142.574 330.443 148.402 335.872C159.648 347.945 181.588 346.776 196.025 334.288C201.475 329.577 205.28 324.103 207.389 318.551C206.836 315.856 205.879 292.802 174.851 282.557V282.557Z" fill="#1C60A1"/>
<path d="M137.876 367.706C153.056 374.171 172.629 364.191 180.751 346.917C188.895 329.608 184.264 312.088 171.143 306.479C164.408 303.882 128.42 291.964 96.9402 273.982C64.7382 257.343 37.0442 234.64 30.2522 241.462C23.4512 247.727 39.8982 284.799 67.2022 313.555C93.3462 343.49 130.347 365.11 137.876 367.706Z" fill="#1D6EBA"/>
<path d="M70.7168 282.758C72.4088 287.548 74.3168 292.356 76.4518 297.092C91.2718 333.97 119.082 366.576 125.337 371.506C137.538 382.613 159.307 379.641 172.667 366.007C186.06 352.348 187.461 334.281 176.921 324.661C175.874 323.773 76.2968 285.462 70.7168 282.758V282.758Z" fill="#227FD7"/>
<path d="M149.904 396.362C166.401 396.109 180.24 379.045 180.652 359.961C181.07 340.836 169.726 326.704 155.458 326.903C148.249 327.264 110.521 330.978 74.4533 327.321C38.2693 325.183 3.74431 315.676 0.304314 324.669C-3.36869 333.155 26.7103 360.361 63.3343 375.559C99.3783 392.305 141.97 397.047 149.904 396.362Z" fill="#3990E0"/>
<path d="M348.672 373.429C348.672 437.512 296.723 446 232.641 446C168.558 446 116.609 437.511 116.609 373.429C116.609 309.347 168.557 249.196 232.64 249.196C296.723 249.196 348.672 309.347 348.672 373.429Z" fill="#6BB1F2"/>
<path d="M210.447 280.412C200.532 283.83 191.842 289.134 184.617 296.177C183.947 296.83 183.155 297.345 182.287 297.692C181.418 298.039 180.49 298.211 179.555 298.199C178.619 298.187 177.696 297.991 176.836 297.622C175.977 297.253 175.198 296.719 174.546 296.049C173.893 295.379 173.378 294.588 173.031 293.719C172.684 292.85 172.512 291.922 172.524 290.987C172.536 290.052 172.732 289.128 173.101 288.268C173.47 287.409 174.005 286.631 174.675 285.978C183.415 277.457 193.888 271.054 205.803 266.945C209.522 265.663 213.581 267.636 214.857 271.356C216.576 276.361 211.474 280.057 210.447 280.412V280.412Z" fill="#D5EBFF"/>
<path d="M160.474 358.649C167.72 358.649 173.594 352.775 173.594 345.529C173.594 338.284 167.72 332.41 160.474 332.41C153.229 332.41 147.355 338.284 147.355 345.529C147.355 352.775 153.229 358.649 160.474 358.649ZM306.439 358.649C313.685 358.649 319.559 352.775 319.559 345.529C319.559 338.284 313.685 332.41 306.439 332.41C299.194 332.41 293.32 338.284 293.32 345.529C293.32 352.775 299.194 358.649 306.439 358.649V358.649ZM231.354 399.229C240.281 399.229 248.545 397.939 256.147 395.358C263.749 392.778 270.792 388.977 277.278 383.956L281.986 390.86C275.36 396.3 267.724 400.659 259.076 403.936C250.498 407.284 241.257 408.958 231.354 408.958C221.451 408.958 212.176 407.284 203.528 403.936C194.95 400.659 187.348 396.3 180.723 390.86L185.43 383.956C191.916 388.977 198.96 392.778 206.562 395.358C214.163 397.939 222.428 399.229 231.354 399.229Z" fill="black"/>
<path d="M182.978 39.465C183.363 39.5017 183.72 39.6805 183.98 39.9665C184.24 40.2526 184.385 40.6254 184.385 41.012C184.385 41.3986 184.24 41.7714 183.98 42.0575C183.72 42.3435 183.363 42.5223 182.978 42.559C173.327 43.4004 164.281 47.6168 157.431 54.467C150.581 61.3173 146.364 70.3629 145.523 80.014C145.469 80.3848 145.282 80.7235 144.998 80.9679C144.714 81.2124 144.352 81.3461 143.977 81.3445C143.602 81.3429 143.24 81.2062 142.959 80.9593C142.677 80.7125 142.493 80.3722 142.442 80.001C141.602 70.3494 137.386 61.3028 130.536 54.4523C123.685 47.6018 114.639 43.3859 104.987 42.546C104.616 42.4924 104.276 42.3063 104.031 42.0222C103.787 41.7381 103.653 41.375 103.654 40.9999C103.656 40.6248 103.793 40.263 104.041 39.9811C104.288 39.6992 104.629 39.5163 105.001 39.466C114.649 38.626 123.692 34.4114 130.54 27.5633C137.388 20.7153 141.603 11.6721 142.443 2.024C142.49 1.64977 142.671 1.30541 142.954 1.05523C143.236 0.805045 143.6 0.666129 143.977 0.664414C144.354 0.6627 144.719 0.798304 145.003 1.04591C145.288 1.29352 145.473 1.63621 145.523 2.01C146.364 11.6612 150.58 20.7071 157.431 27.5574C164.281 34.4077 173.327 38.624 182.978 39.465V39.465ZM395.914 103.176C396.12 103.196 396.311 103.292 396.45 103.446C396.589 103.599 396.666 103.799 396.666 104.006C396.666 104.213 396.589 104.413 396.45 104.566C396.311 104.72 396.12 104.816 395.914 104.836C390.736 105.288 385.882 107.551 382.207 111.227C378.531 114.902 376.269 119.756 375.817 124.934C375.789 125.134 375.689 125.317 375.537 125.449C375.384 125.581 375.189 125.653 374.987 125.652C374.785 125.651 374.59 125.577 374.439 125.444C374.288 125.31 374.19 125.126 374.164 124.926C373.713 119.747 371.45 114.893 367.775 111.218C364.099 107.542 359.245 105.28 354.066 104.829C353.866 104.801 353.683 104.702 353.551 104.549C353.419 104.396 353.347 104.201 353.347 103.999C353.348 103.797 353.423 103.602 353.556 103.451C353.69 103.3 353.874 103.202 354.074 103.176C359.251 102.726 364.103 100.464 367.778 96.7897C371.452 93.1153 373.713 88.2629 374.164 83.086C374.19 82.8858 374.288 82.7019 374.439 82.5684C374.591 82.4349 374.785 82.3609 374.987 82.36C375.189 82.3592 375.385 82.4316 375.537 82.5638C375.69 82.696 375.789 82.8791 375.817 83.079C376.268 88.2574 378.531 93.111 382.206 96.7866C385.882 100.462 390.736 102.725 395.914 103.176V103.176Z" fill="#4A92FF"/>
</g>
<defs>
<clipPath id="clip0_604_281">
<rect width="466" height="446" fill="white"/>
</clipPath>
</defs>
</svg>
