<svg width="80" height="80" viewBox="0 0 80 80" fill="none" xmlns="http://www.w3.org/2000/svg">
  <g clip-path="url(#clip0_164_816)">
    <path
      d="M16.6712 49.9494C16.6712 54.5417 12.9596 58.2532 8.36735 58.2532C3.77505 58.2532 0.0634766 54.5417 0.0634766 49.9494C0.0634766 45.3571 3.77505 41.6455 8.36735 41.6455H16.6712V49.9494ZM20.8231 49.9494C20.8231 45.3571 24.5347 41.6455 29.127 41.6455C33.7193 41.6455 37.4308 45.3571 37.4308 49.9494V70.709C37.4308 75.3013 33.7193 79.0129 29.127 79.0129C24.5347 79.0129 20.8231 75.3013 20.8231 70.709V49.9494Z"
      fill="#E01E5A" />
    <path
      d="M29.1264 16.6077C24.5341 16.6077 20.8226 12.8962 20.8226 8.30386C20.8226 3.71157 24.5341 0 29.1264 0C33.7187 0 37.4303 3.71157 37.4303 8.30386V16.6077H29.1264ZM29.1264 20.8226C33.7187 20.8226 37.4303 24.5341 37.4303 29.1264C37.4303 33.7187 33.7187 37.4303 29.1264 37.4303H8.30386C3.71157 37.4303 0 33.7187 0 29.1264C0 24.5341 3.71157 20.8226 8.30386 20.8226H29.1264Z"
      fill="#36C5F0" />
    <path
      d="M62.4046 29.1264C62.4046 24.5341 66.1162 20.8226 70.7085 20.8226C75.3008 20.8226 79.0124 24.5341 79.0124 29.1264C79.0124 33.7187 75.3008 37.4303 70.7085 37.4303H62.4046V29.1264ZM58.2527 29.1264C58.2527 33.7187 54.5411 37.4303 49.9488 37.4303C45.3565 37.4303 41.645 33.7187 41.645 29.1264V8.30386C41.645 3.71157 45.3565 0 49.9488 0C54.5411 0 58.2527 3.71157 58.2527 8.30386V29.1264Z"
      fill="#2EB67D" />
    <path
      d="M49.9488 62.4052C54.5411 62.4052 58.2527 66.1167 58.2527 70.709C58.2527 75.3013 54.5411 79.0129 49.9488 79.0129C45.3565 79.0129 41.645 75.3013 41.645 70.709V62.4052H49.9488ZM49.9488 58.2532C45.3565 58.2532 41.645 54.5417 41.645 49.9494C41.645 45.3571 45.3565 41.6455 49.9488 41.6455H70.7714C75.3637 41.6455 79.0752 45.3571 79.0752 49.9494C79.0752 54.5417 75.3637 58.2532 70.7714 58.2532H49.9488Z"
      fill="#ECB22E" />
  </g>
  <defs>
    <clipPath id="clip0_164_816">
      <rect width="80" height="79.0123" fill="white" />
    </clipPath>
  </defs>
</svg>
