<svg width="1584" height="1368" viewBox="0 0 1584 1368" fill="none" xmlns="http://www.w3.org/2000/svg">
  <path d="M791.667 360.946L1091.86 662.798L791.667 964.65L491.478 662.798L791.667 360.946Z" fill="#61A1DC" />
  <path d="M781.029 341.391L472.005 652.126H132.47L781.017 0.0123291L781.029 341.391Z" fill="#6AB5FA" />
  <path d="M472.016 673.521L781.041 984.256V1325.63L132.506 673.521H472.016Z" fill="#6AB5FA" />
  <path d="M802.317 984.244L1111.34 673.508H1450.86L802.329 1325.62L802.317 984.244Z" fill="#0B4781" />
  <path d="M1111.33 652.114L802.305 341.378V0L1450.84 652.114H1111.33Z" fill="#147ADB" />
  <path d="M1078.33 993.238C1040.06 1034.32 965.401 1030.34 916.272 987.848C867.024 945.274 857.209 884.398 890.264 848.817C907.619 831.431 1003.06 744.632 1076.1 645.209C1153.24 548.962 1207.98 440.089 1238.53 451.915C1268.34 461.996 1268.43 600.009 1223.27 727.168C1183.34 856.39 1098.16 974.76 1078.33 993.238Z" fill="#1C5286" />
  <path d="M988.322 811.808C1026.62 799.163 1226.34 705.625 1231.3 702.938C1228.8 711.034 1226.12 719.123 1223.27 727.17C1183.34 856.395 1098.16 974.762 1078.33 993.236C1040.06 1034.32 965.397 1030.34 916.267 987.846C897.722 971.815 884.774 953.186 877.596 934.294C879.48 925.122 882.736 846.669 988.322 811.808Z" fill="#1C60A1" />
  <path d="M1114.15 1101.57C1062.49 1123.57 995.884 1089.61 968.246 1030.82C940.532 971.921 956.291 912.301 1000.94 893.211C1023.86 884.376 1146.33 843.819 1253.45 782.625C1363.04 726.002 1457.28 648.746 1480.39 671.961C1503.54 693.281 1447.57 819.434 1354.65 917.292C1265.69 1019.16 1139.77 1092.73 1114.15 1101.57Z" fill="#1D6EBA" />
  <path d="M1339.01 812.49C1333.25 828.79 1326.76 845.153 1319.5 861.269C1269.07 986.765 1174.43 1097.72 1153.14 1114.5C1111.62 1152.3 1037.55 1142.18 992.079 1095.79C946.503 1049.31 941.736 987.825 977.603 955.088C981.167 952.065 1320.02 821.692 1339.01 812.49Z" fill="#227FD7" />
  <path d="M1073.22 1199.08C1017.08 1198.22 969.984 1140.15 968.583 1075.21C967.161 1010.13 1005.76 962.038 1054.32 962.716C1078.85 963.943 1207.24 976.582 1329.98 964.138C1453.11 956.865 1570.59 924.508 1582.3 955.111C1594.8 983.989 1492.44 1076.57 1367.81 1128.29C1245.16 1185.28 1100.22 1201.41 1073.22 1199.08Z" fill="#3990E0" />
  <path d="M505.009 993.238C543.279 1034.32 617.94 1030.34 667.07 987.848C716.317 945.274 726.133 884.398 693.077 848.817C675.722 831.431 580.286 744.632 507.242 645.209C430.104 548.962 375.361 440.089 344.807 451.915C314.999 461.996 314.909 600.009 360.072 727.168C399.999 856.39 485.18 974.76 505.009 993.238Z" fill="#1C5286" />
  <path d="M595.02 811.808C556.72 799.163 357.006 705.625 352.045 702.938C354.544 711.034 357.219 719.123 360.077 727.17C400.003 856.395 485.182 974.762 505.014 993.236C543.283 1034.32 617.945 1030.34 667.075 987.846C685.62 971.815 698.568 953.186 705.746 934.294C703.862 925.122 700.606 846.669 595.02 811.808Z" fill="#1C60A1" />
  <path d="M469.194 1101.57C520.85 1123.57 587.459 1089.61 615.096 1030.82C642.811 971.921 627.052 912.301 582.4 893.211C559.481 884.376 437.017 843.819 329.888 782.625C220.306 726.002 126.064 648.746 102.951 671.961C79.8067 693.281 135.777 819.434 228.69 917.292C317.657 1019.16 443.573 1092.73 469.194 1101.57Z" fill="#1D6EBA" />
  <path d="M240.646 812.49C246.404 828.79 252.894 845.153 260.161 861.269C310.592 986.764 405.231 1097.72 426.515 1114.5C468.037 1152.29 542.115 1142.18 587.58 1095.78C633.156 1049.3 637.923 987.822 602.055 955.085C598.492 952.062 259.635 821.692 240.646 812.49Z" fill="#227FD7" />
  <path d="M510.123 1199.08C566.26 1198.22 613.356 1140.15 614.756 1075.21C616.179 1010.13 577.576 962.039 529.021 962.716C504.488 963.944 376.102 976.583 253.362 964.139C130.229 956.862 12.7406 924.509 1.03568 955.112C-11.4641 983.989 90.8933 1076.57 215.526 1128.29C338.182 1185.28 483.123 1201.41 510.123 1199.08Z" fill="#3990E0" />
  <path d="M1186.53 1121.04C1186.53 1339.12 1009.74 1368 791.673 1368C573.602 1368 396.818 1339.11 396.818 1121.04C396.818 902.972 573.596 698.279 791.67 698.279C1009.74 698.279 1186.53 902.972 1186.53 1121.04Z" fill="url(#paint0_linear_1_31)" />
  <path d="M716.15 804.507C682.409 816.137 652.837 834.189 628.251 858.156C618.667 867.499 603.324 867.305 593.979 857.719C584.635 848.133 584.832 832.79 594.416 823.448C624.16 794.453 659.8 772.662 700.346 758.678C713 754.315 726.814 761.03 731.155 773.688C737.007 790.722 719.642 803.3 716.15 804.507Z" fill="#D5EBFF" />
  <path d="M546.092 1070.75C570.749 1070.75 590.738 1050.76 590.738 1026.1C590.738 1001.44 570.749 981.455 546.092 981.455C521.435 981.455 501.446 1001.44 501.446 1026.1C501.446 1050.76 521.435 1070.75 546.092 1070.75Z" fill="#312821" />
  <path d="M1042.81 1070.75C1067.47 1070.75 1087.46 1050.76 1087.46 1026.1C1087.46 1001.44 1067.47 981.455 1042.81 981.455C1018.15 981.455 998.164 1001.44 998.164 1026.1C998.164 1050.76 1018.15 1070.75 1042.81 1070.75Z" fill="#312821" />
  <path d="M787.296 1208.84C817.673 1208.84 845.796 1204.45 871.665 1195.67C897.533 1186.89 921.503 1173.95 943.574 1156.87L959.594 1180.36C937.048 1198.87 911.061 1213.7 881.633 1224.86C852.442 1236.25 820.996 1241.95 787.296 1241.95C753.596 1241.95 722.032 1236.25 692.603 1224.86C663.412 1213.7 637.544 1198.87 614.998 1180.36L631.018 1156.87C653.089 1173.95 677.059 1186.89 702.927 1195.67C728.795 1204.45 756.918 1208.84 787.296 1208.84Z" fill="#312821" />
  <defs>
    <linearGradient id="paint0_linear_1_31" x1="791.673" y1="698.279" x2="791.673" y2="1368" gradientUnits="userSpaceOnUse">
      <stop stop-color="#86BAEB" />
      <stop offset="1" stop-color="#005CB3" />
    </linearGradient>
  </defs>
</svg>
